<?xml version="1.0" encoding="UTF-8" standalone="no"?>
<!-- Uploaded to: SVG Repo, www.svgrepo.com, Generator: SVG Repo Mixer Tools -->
<svg width="800px" height="800px" viewBox="0 0 64 64" version="1.1" xmlns="http://www.w3.org/2000/svg" xmlns:xlink="http://www.w3.org/1999/xlink" xmlns:sketch="http://www.bohemiancoding.com/sketch/ns">
    
    <title>Button-circle-checked</title>
    <desc>Created with Sketch.</desc>
    <defs>
</defs>
    <g id="Page-1" stroke="none" stroke-width="1" fill="none" fill-rule="evenodd" sketch:type="MSPage">
        <g id="Button-circle-checked" sketch:type="MSLayerGroup" transform="translate(1.000000, 1.000000)" stroke="#6B6C6E" stroke-width="2">
            <circle id="Oval" sketch:type="MSShapeGroup" cx="31" cy="31" r="31">
</circle>
            <path d="M31,5 C45.4,5 57,16.6 57,31" id="Shape" sketch:type="MSShapeGroup">
</path>
            <path d="M31,57 C16.6,57 5,45.4 5,31" id="Shape" sketch:type="MSShapeGroup">
</path>
            <path d="M45,26.3 L41.5,22.8 C41,22.3 40.2,22.3 39.8,22.8 L30.2,32.4 L25.8,28 C25.3,27.5 24.5,27.5 24.1,28 L20.6,31.5 C20.1,32 20.1,32.8 20.6,33.2 L29.3,41.9 C29.8,42.4 30.6,42.4 31,41.9 L45,27.9 C45.5,27.5 45.5,26.7 45,26.3 L45,26.3 Z" id="Shape" sketch:type="MSShapeGroup">
</path>
        </g>
    </g>
</svg>