<svg version="1.1" viewBox="0.0 0.0 584.0 324.0" fill="none" stroke="none" stroke-linecap="square" stroke-miterlimit="10" width="584" height="324" xmlns:xlink="http://www.w3.org/1999/xlink" xmlns="http://www.w3.org/2000/svg"><path fill="#ffffff" fill-opacity="0.0" d="M0 0L584.0 0L584.0 324.0L0 324.0L0 0Z" fill-rule="nonzero"/><path fill="#9fc5e8" d="M292.0 51.0C329.68396 51.0 365.4655 67.554306 389.8616 96.275604L292.0 179.4Z" fill-rule="nonzero"/><path fill="#b4a7d6" d="M389.8616 96.275604C410.5067 120.580894 421.3684 151.69908 420.33218 183.57217L292.0 179.4Z" fill-rule="nonzero"/><path fill="#d5a6bd" d="M420.33218 183.57217C419.04437 223.18442 399.53555 259.982 367.47162 283.27777L292.0 179.4Z" fill-rule="nonzero"/><path fill="#bdbdbd" d="M171.71776 134.46956C190.4678 84.27427 238.41705 51.0 292.0 51.0L292.0 179.4Z" fill-rule="nonzero"/><path fill="#a2c4c9" d="M188.94589 255.9925C162.96078 221.02992 156.47447 175.27702 171.71776 134.46956L292.0 179.4Z" fill-rule="nonzero"/><path fill="#b6d7a8" d="M367.47162 283.27777C310.5405 324.6407 230.92308 312.47223 188.94589 255.9925L292.0 179.4Z" fill-rule="nonzero"/><path fill="#757575" d="M23.2625 71.67034L24.3875 71.96722Q24.028126 73.35784 23.10625 74.09222Q22.184376 74.82659 20.840626 74.82659Q19.45 74.82659 18.575 74.26409Q17.7 73.70159 17.246876 72.63909Q16.79375 71.56097 16.79375 70.32659Q16.79375 68.98284 17.309376 67.98284Q17.825 66.98284 18.7625 66.46722Q19.715626 65.95159 20.85625 65.95159Q22.1375 65.95159 23.0125 66.60784Q23.903126 67.26409 24.246876 68.45159L23.121876 68.71722Q22.825 67.77972 22.246876 67.35784Q21.684376 66.92034 20.825 66.92034Q19.840626 66.92034 19.16875 67.40472Q18.5125 67.87347 18.23125 68.67034Q17.965626 69.46722 17.965626 70.32659Q17.965626 71.42034 18.278126 72.23284Q18.60625 73.04534 19.278126 73.45159Q19.95 73.85784 20.746876 73.85784Q21.7 73.85784 22.35625 73.31097Q23.028126 72.76409 23.2625 71.67034ZM25.60625 71.57659Q25.60625 69.84222 26.559376 69.01409Q27.35625 68.32659 28.5125 68.32659Q29.79375 68.32659 30.60625 69.17034Q31.434376 69.99847 31.434376 71.48284Q31.434376 72.68597 31.075 73.37347Q30.715626 74.06097 30.0125 74.45159Q29.325 74.82659 28.5125 74.82659Q27.215626 74.82659 26.403126 73.99847Q25.60625 73.15472 25.60625 71.57659ZM26.684376 71.57659Q26.684376 72.76409 27.2 73.35784Q27.73125 73.95159 28.5125 73.95159Q29.309376 73.95159 29.825 73.35784Q30.340626 72.76409 30.340626 71.54534Q30.340626 70.38909 29.809376 69.79534Q29.29375 69.20159 28.5125 69.20159Q27.73125 69.20159 27.2 69.79534Q26.684376 70.37347 26.684376 71.57659ZM32.996876 74.68597L32.996876 68.46722L33.934376 68.46722L33.934376 69.34222Q34.23125 68.87347 34.715626 68.60784Q35.2 68.32659 35.825 68.32659Q36.5125 68.32659 36.95 68.60784Q37.403126 68.88909 37.575 69.40472Q38.325 68.32659 39.496876 68.32659Q40.434376 68.32659 40.91875 68.84222Q41.41875 69.34222 41.41875 70.42034L41.41875 74.68597L40.371876 74.68597L40.371876 70.76409Q40.371876 70.13909 40.2625 69.85784Q40.16875 69.57659 39.903126 69.40472Q39.6375 69.23284 39.2625 69.23284Q38.60625 69.23284 38.16875 69.67034Q37.746876 70.10784 37.746876 71.07659L37.746876 74.68597L36.684376 74.68597L36.684376 70.63909Q36.684376 69.93597 36.41875 69.59222Q36.16875 69.23284 35.590626 69.23284Q35.1375 69.23284 34.7625 69.46722Q34.3875 69.70159 34.215626 70.15472Q34.04375 70.60784 34.04375 71.45159L34.04375 74.68597L32.996876 74.68597ZM43.996876 77.07659L43.996876 68.46722L44.95 68.46722L44.95 69.26409Q45.29375 68.79534 45.715626 68.56097Q46.153126 68.32659 46.7625 68.32659Q47.559376 68.32659 48.16875 68.73284Q48.778126 69.13909 49.075 69.88909Q49.3875 70.63909 49.3875 71.52972Q49.3875 72.48284 49.04375 73.24847Q48.715626 74.01409 48.059376 74.42034Q47.403126 74.82659 46.684376 74.82659Q46.153126 74.82659 45.73125 74.60784Q45.309376 74.37347 45.04375 74.04534L45.04375 77.07659L43.996876 77.07659ZM44.95 71.60784Q44.95 72.81097 45.434376 73.38909Q45.91875 73.95159 46.60625 73.95159Q47.309376 73.95159 47.809376 73.35784Q48.309376 72.76409 48.309376 71.51409Q48.309376 70.32659 47.825 69.74847Q47.340626 69.15472 46.653126 69.15472Q45.98125 69.15472 45.465626 69.77972Q44.95 70.40472 44.95 71.60784ZM50.965626 74.68597L50.965626 66.09222L52.028126 66.09222L52.028126 74.68597L50.965626 74.68597ZM58.246876 72.68597L59.340626 72.81097Q59.090626 73.76409 58.3875 74.29534Q57.684376 74.82659 56.60625 74.82659Q55.246876 74.82659 54.434376 73.98284Q53.6375 73.13909 53.6375 71.62347Q53.6375 70.06097 54.45 69.20159Q55.2625 68.32659 56.54375 68.32659Q57.79375 68.32659 58.575 69.17034Q59.371876 70.01409 59.371876 71.56097Q59.371876 71.65472 59.371876 71.84222L54.73125 71.84222Q54.79375 72.87347 55.309376 73.42034Q55.825 73.95159 56.60625 73.95159Q57.184376 73.95159 57.590626 73.65472Q58.0125 73.34222 58.246876 72.68597ZM54.79375 70.98284L58.2625 70.98284Q58.2 70.18597 57.871876 69.79534Q57.35625 69.18597 56.559376 69.18597Q55.825 69.18597 55.325 69.67034Q54.840626 70.15472 54.79375 70.98284ZM63.29375 73.74847L63.45 74.67034Q62.996876 74.76409 62.653126 74.76409Q62.075 74.76409 61.7625 74.59222Q61.45 74.40472 61.309376 74.10784Q61.184376 73.81097 61.184376 72.85784L61.184376 69.27972L60.41875 69.27972L60.41875 68.46722L61.184376 68.46722L61.184376 66.92034L62.23125 66.29534L62.23125 68.46722L63.29375 68.46722L63.29375 69.27972L62.23125 69.27972L62.23125 72.92034Q62.23125 73.37347 62.278126 73.49847Q62.340626 73.62347 62.465626 73.70159Q62.590626 73.77972 62.825 73.77972Q63.0125 73.77972 63.29375 73.74847ZM68.24687 72.68597L69.34062 72.81097Q69.09062 73.76409 68.3875 74.29534Q67.68437 74.82659 66.60625 74.82659Q65.24687 74.82659 64.43437 73.98284Q63.6375 73.13909 63.6375 71.62347Q63.6375 70.06097 64.45 69.20159Q65.2625 68.32659 66.54375 68.32659Q67.79375 68.32659 68.575 69.17034Q69.37187 70.01409 69.37187 71.56097Q69.37187 71.65472 69.37187 71.84222L64.73125 71.84222Q64.79375 72.87347 65.30937 73.42034Q65.825 73.95159 66.60625 73.95159Q67.18437 73.95159 67.59062 73.65472Q68.0125 73.34222 68.24687 72.68597ZM64.79375 70.98284L68.2625 70.98284Q68.2 70.18597 67.87187 69.79534Q67.35625 69.18597 66.55937 69.18597Q65.825 69.18597 65.325 69.67034Q64.84062 70.15472 64.79375 70.98284ZM75.02812 74.68597L75.02812 73.90472Q74.43437 74.82659 73.29375 74.82659Q72.54375 74.82659 71.91875 74.42034Q71.29375 73.99847 70.95 73.26409Q70.60625 72.52972 70.60625 71.57659Q70.60625 70.65472 70.91875 69.88909Q71.23125 69.12347 71.85625 68.73284Q72.48125 68.32659 73.24687 68.32659Q73.80937 68.32659 74.24687 68.56097Q74.68437 68.79534 74.96562 69.17034L74.96562 66.09222L76.0125 66.09222L76.0125 74.68597L75.02812 74.68597ZM71.7 71.57659Q71.7 72.77972 72.2 73.37347Q72.7 73.95159 73.3875 73.95159Q74.075 73.95159 74.55937 73.38909Q75.04375 72.82659 75.04375 71.67034Q75.04375 70.38909 74.54375 69.79534Q74.05937 69.20159 73.34062 69.20159Q72.6375 69.20159 72.16875 69.77972Q71.7 70.34222 71.7 71.57659Z" fill-rule="nonzero"/><path fill="#9e9e9e" d="M20.66875 91.68597L19.621876 91.68597L19.621876 84.96722Q19.23125 85.32659 18.60625 85.70159Q17.996876 86.06097 17.5125 86.23284L17.5125 85.21722Q18.3875 84.79534 19.04375 84.21722Q19.715626 83.62347 19.996876 83.06097L20.66875 83.06097L20.66875 91.68597ZM23.85625 89.70159L24.871876 89.60784Q24.996876 90.32659 25.35625 90.65472Q25.73125 90.96722 26.29375 90.96722Q26.778126 90.96722 27.1375 90.74847Q27.5125 90.51409 27.746876 90.15472Q27.98125 89.77972 28.1375 89.15472Q28.29375 88.51409 28.29375 87.85784Q28.29375 87.77972 28.29375 87.63909Q27.98125 88.13909 27.434376 88.46722Q26.8875 88.77972 26.246876 88.77972Q25.16875 88.77972 24.434376 88.01409Q23.7 87.23284 23.7 85.96722Q23.7 84.65472 24.465626 83.85784Q25.246876 83.06097 26.403126 83.06097Q27.23125 83.06097 27.91875 83.51409Q28.621876 83.96722 28.98125 84.81097Q29.340626 85.63909 29.340626 87.21722Q29.340626 88.85784 28.98125 89.84222Q28.6375 90.81097 27.91875 91.32659Q27.215626 91.82659 26.278126 91.82659Q25.2625 91.82659 24.621876 91.27972Q23.98125 90.71722 23.85625 89.70159ZM28.16875 85.90472Q28.16875 84.99847 27.684376 84.46722Q27.215626 83.93597 26.528126 83.93597Q25.825 83.93597 25.29375 84.51409Q24.778126 85.07659 24.778126 85.99847Q24.778126 86.81097 25.278126 87.32659Q25.778126 87.84222 26.496876 87.84222Q27.23125 87.84222 27.7 87.32659Q28.16875 86.81097 28.16875 85.90472ZM31.29375 91.68597L31.29375 90.48284L32.496876 90.48284L32.496876 91.68597L31.29375 91.68597ZM33.7 89.42034L34.7625 89.27972Q34.934376 90.17034 35.371876 90.57659Q35.809376 90.96722 36.434376 90.96722Q37.184376 90.96722 37.7 90.45159Q38.215626 89.93597 38.215626 89.17034Q38.215626 88.45159 37.73125 87.98284Q37.2625 87.49847 36.528126 87.49847Q36.23125 87.49847 35.778126 87.62347L35.903126 86.68597Q36.0125 86.70159 36.075 86.70159Q36.746876 86.70159 37.278126 86.35784Q37.825 85.99847 37.825 85.26409Q37.825 84.68597 37.434376 84.31097Q37.04375 83.92034 36.41875 83.92034Q35.809376 83.92034 35.3875 84.31097Q34.98125 84.70159 34.871876 85.46722L33.809376 85.27972Q33.996876 84.23284 34.684376 83.65472Q35.371876 83.06097 36.3875 83.06097Q37.090626 83.06097 37.684376 83.37347Q38.278126 83.67034 38.590626 84.18597Q38.903126 84.70159 38.903126 85.29534Q38.903126 85.84222 38.60625 86.31097Q38.309376 86.76409 37.73125 87.02972Q38.48125 87.20159 38.903126 87.76409Q39.325 88.31097 39.325 89.15472Q39.325 90.27972 38.496876 91.06097Q37.684376 91.84222 36.434376 91.84222Q35.309376 91.84222 34.559376 91.17034Q33.809376 90.48284 33.7 89.42034ZM40.903126 85.15472Q40.903126 84.23284 41.35625 83.59222Q41.825 82.95159 42.7 82.95159Q43.5125 82.95159 44.04375 83.52972Q44.575 84.10784 44.575 85.21722Q44.575 86.31097 44.028126 86.90472Q43.496876 87.48284 42.715626 87.48284Q41.934376 87.48284 41.41875 86.90472Q40.903126 86.32659 40.903126 85.15472ZM42.73125 83.67034Q42.340626 83.67034 42.075 84.01409Q41.825 84.35784 41.825 85.26409Q41.825 86.09222 42.075 86.43597Q42.340626 86.76409 42.73125 86.76409Q43.1375 86.76409 43.3875 86.42034Q43.653126 86.07659 43.653126 85.18597Q43.653126 84.34222 43.3875 84.01409Q43.121876 83.67034 42.73125 83.67034ZM42.73125 91.99847L47.434376 82.95159L48.29375 82.95159L43.60625 91.99847L42.73125 91.99847ZM46.45 89.67034Q46.45 88.74847 46.903126 88.10784Q47.371876 87.46722 48.2625 87.46722Q49.075 87.46722 49.60625 88.04534Q50.1375 88.60784 50.1375 89.73284Q50.1375 90.82659 49.590626 91.42034Q49.059376 91.99847 48.2625 91.99847Q47.496876 91.99847 46.965626 91.42034Q46.45 90.84222 46.45 89.67034ZM48.29375 88.18597Q47.8875 88.18597 47.621876 88.52972Q47.371876 88.87347 47.371876 89.77972Q47.371876 90.59222 47.6375 90.93597Q47.903126 91.27972 48.29375 91.27972Q48.684376 91.27972 48.95 90.93597Q49.215626 90.59222 49.215626 89.68597Q49.215626 88.85784 48.95 88.52972Q48.684376 88.18597 48.29375 88.18597Z" fill-rule="nonzero"/><path stroke="#757575" stroke-width="1.0" stroke-linecap="butt" d="M16.2 79.18597L157.6 79.18597L222.45671 79.18597" fill-rule="nonzero"/><path fill="#9e9e9e" d="M224.45671 79.18597C224.45671 78.0814 223.56128 77.18597 222.45671 77.18597C221.35214 77.18597 220.45671 78.0814 220.45671 79.18597C220.45671 80.290535 221.35214 81.18597 222.45671 81.18597C223.56128 81.18597 224.45671 80.290535 224.45671 79.18597" fill-rule="nonzero"/><path fill="#757575" d="M17.16875 192.02171L17.16875 183.42796L18.29375 183.42796L18.29375 186.95921L22.7625 186.95921L22.7625 183.42796L23.903126 183.42796L23.903126 192.02171L22.7625 192.02171L22.7625 187.97484L18.29375 187.97484L18.29375 192.02171L17.16875 192.02171ZM30.075 192.02171L30.075 191.09984Q29.340626 192.16234 28.090626 192.16234Q27.54375 192.16234 27.059376 191.95921Q26.590626 191.74046 26.35625 191.42796Q26.121876 191.09984 26.028126 190.63109Q25.965626 190.33421 25.965626 189.64671L25.965626 185.80296L27.028126 185.80296L27.028126 189.25609Q27.028126 190.06859 27.090626 190.36546Q27.184376 190.77171 27.496876 191.02171Q27.825 191.25609 28.309376 191.25609Q28.778126 191.25609 29.184376 191.02171Q29.60625 190.77171 29.778126 190.34984Q29.965626 189.92796 29.965626 189.13109L29.965626 185.80296L31.0125 185.80296L31.0125 192.02171L30.075 192.02171ZM32.996876 192.02171L32.996876 185.80296L33.934376 185.80296L33.934376 186.67796Q34.23125 186.20921 34.715626 185.94359Q35.2 185.66234 35.825 185.66234Q36.5125 185.66234 36.95 185.94359Q37.403126 186.22484 37.575 186.74046Q38.325 185.66234 39.496876 185.66234Q40.434376 185.66234 40.91875 186.17796Q41.41875 186.67796 41.41875 187.75609L41.41875 192.02171L40.371876 192.02171L40.371876 188.09984Q40.371876 187.47484 40.2625 187.19359Q40.16875 186.91234 39.903126 186.74046Q39.6375 186.56859 39.2625 186.56859Q38.60625 186.56859 38.16875 187.00609Q37.746876 187.44359 37.746876 188.41234L37.746876 192.02171L36.684376 192.02171L36.684376 187.97484Q36.684376 187.27171 36.41875 186.92796Q36.16875 186.56859 35.590626 186.56859Q35.1375 186.56859 34.7625 186.80296Q34.3875 187.03734 34.215626 187.49046Q34.04375 187.94359 34.04375 188.78734L34.04375 192.02171L32.996876 192.02171ZM48.059376 191.25609Q47.465626 191.75609 46.91875 191.95921Q46.3875 192.16234 45.7625 192.16234Q44.73125 192.16234 44.184376 191.66234Q43.6375 191.16234 43.6375 190.38109Q43.6375 189.92796 43.840626 189.55296Q44.04375 189.16234 44.3875 188.94359Q44.73125 188.70921 45.153126 188.59984Q45.45 188.50609 46.090626 188.42796Q47.35625 188.28734 47.965626 188.06859Q47.965626 187.84984 47.965626 187.80296Q47.965626 187.14671 47.66875 186.88109Q47.2625 186.53734 46.465626 186.53734Q45.73125 186.53734 45.371876 186.80296Q45.0125 187.05296 44.840626 187.70921L43.809376 187.56859Q43.95 186.91234 44.278126 186.50609Q44.60625 186.09984 45.215626 185.88109Q45.825 185.66234 46.621876 185.66234Q47.41875 185.66234 47.91875 185.84984Q48.41875 186.03734 48.653126 186.31859Q48.8875 186.59984 48.98125 187.03734Q49.028126 187.30296 49.028126 188.00609L49.028126 189.41234Q49.028126 190.88109 49.090626 191.27171Q49.16875 191.66234 49.371876 192.02171L48.2625 192.02171Q48.10625 191.69359 48.059376 191.25609ZM47.965626 188.89671Q47.3875 189.13109 46.246876 189.30296Q45.590626 189.39671 45.325 189.52171Q45.059376 189.63109 44.903126 189.84984Q44.7625 190.06859 44.7625 190.34984Q44.7625 190.77171 45.075 191.05296Q45.403126 191.33421 46.0125 191.33421Q46.621876 191.33421 47.090626 191.06859Q47.575 190.80296 47.79375 190.33421Q47.965626 189.97484 47.965626 189.28734L47.965626 188.89671ZM50.996876 192.02171L50.996876 185.80296L51.934376 185.80296L51.934376 186.67796Q52.621876 185.66234 53.91875 185.66234Q54.48125 185.66234 54.95 185.86546Q55.434376 186.06859 55.66875 186.39671Q55.903126 186.72484 55.996876 187.16234Q56.04375 187.45921 56.04375 188.19359L56.04375 192.02171L54.996876 192.02171L54.996876 188.24046Q54.996876 187.58421 54.871876 187.27171Q54.746876 186.95921 54.434376 186.77171Q54.121876 186.56859 53.7 186.56859Q53.028126 186.56859 52.528126 187.00609Q52.04375 187.42796 52.04375 188.61546L52.04375 192.02171L50.996876 192.02171ZM60.184376 192.02171L63.48125 183.42796L64.7 183.42796L68.21562 192.02171L66.93437 192.02171L65.91875 189.41234L62.340626 189.41234L61.3875 192.02171L60.184376 192.02171ZM62.66875 188.49046L65.575 188.49046L64.68437 186.11546Q64.2625 185.03734 64.075 184.33421Q63.903126 185.16234 63.60625 185.97484L62.66875 188.49046ZM67.99687 192.02171L67.99687 185.80296L68.93437 185.80296L68.93437 186.67796Q69.62187 185.66234 70.91875 185.66234Q71.48125 185.66234 71.95 185.86546Q72.43437 186.06859 72.66875 186.39671Q72.90312 186.72484 72.99687 187.16234Q73.04375 187.45921 73.04375 188.19359L73.04375 192.02171L71.99687 192.02171L71.99687 188.24046Q71.99687 187.58421 71.87187 187.27171Q71.74687 186.95921 71.43437 186.77171Q71.12187 186.56859 70.7 186.56859Q70.02812 186.56859 69.52812 187.00609Q69.04375 187.42796 69.04375 188.61546L69.04375 192.02171L67.99687 192.02171ZM79.05937 191.25609Q78.46562 191.75609 77.91875 191.95921Q77.3875 192.16234 76.7625 192.16234Q75.73125 192.16234 75.18437 191.66234Q74.6375 191.16234 74.6375 190.38109Q74.6375 189.92796 74.84062 189.55296Q75.04375 189.16234 75.3875 188.94359Q75.73125 188.70921 76.15312 188.59984Q76.45 188.50609 77.09062 188.42796Q78.35625 188.28734 78.96562 188.06859Q78.96562 187.84984 78.96562 187.80296Q78.96562 187.14671 78.66875 186.88109Q78.2625 186.53734 77.46562 186.53734Q76.73125 186.53734 76.37187 186.80296Q76.0125 187.05296 75.84062 187.70921L74.80937 187.56859Q74.95 186.91234 75.27812 186.50609Q75.60625 186.09984 76.21562 185.88109Q76.825 185.66234 77.62187 185.66234Q78.41875 185.66234 78.91875 185.84984Q79.41875 186.03734 79.65312 186.31859Q79.8875 186.59984 79.98125 187.03734Q80.02812 187.30296 80.02812 188.00609L80.02812 189.41234Q80.02812 190.88109 80.09062 191.27171Q80.16875 191.66234 80.37187 192.02171L79.2625 192.02171Q79.10625 191.69359 79.05937 191.25609ZM78.96562 188.89671Q78.3875 189.13109 77.24687 189.30296Q76.59062 189.39671 76.325 189.52171Q76.05937 189.63109 75.90312 189.84984Q75.7625 190.06859 75.7625 190.34984Q75.7625 190.77171 76.075 191.05296Q76.40312 191.33421 77.0125 191.33421Q77.62187 191.33421 78.09062 191.06859Q78.575 190.80296 78.79375 190.33421Q78.96562 189.97484 78.96562 189.28734L78.96562 188.89671ZM84.29375 191.08421L84.45 192.00609Q83.99687 192.09984 83.65312 192.09984Q83.075 192.09984 82.7625 191.92796Q82.45 191.74046 82.30937 191.44359Q82.18437 191.14671 82.18437 190.19359L82.18437 186.61546L81.41875 186.61546L81.41875 185.80296L82.18437 185.80296L82.18437 184.25609L83.23125 183.63109L83.23125 185.80296L84.29375 185.80296L84.29375 186.61546L83.23125 186.61546L83.23125 190.25609Q83.23125 190.70921 83.27812 190.83421Q83.34062 190.95921 83.46562 191.03734Q83.59062 191.11546 83.825 191.11546Q84.0125 191.11546 84.29375 191.08421ZM84.60625 188.91234Q84.60625 187.17796 85.55937 186.34984Q86.35625 185.66234 87.5125 185.66234Q88.79375 185.66234 89.60625 186.50609Q90.43437 187.33421 90.43437 188.81859Q90.43437 190.02171 90.075 190.70921Q89.71562 191.39671 89.0125 191.78734Q88.325 192.16234 87.5125 192.16234Q86.21562 192.16234 85.40312 191.33421Q84.60625 190.49046 84.60625 188.91234ZM85.68437 188.91234Q85.68437 190.09984 86.2 190.69359Q86.73125 191.28734 87.5125 191.28734Q88.30937 191.28734 88.825 190.69359Q89.34062 190.09984 89.34062 188.88109Q89.34062 187.72484 88.80937 187.13109Q88.29375 186.53734 87.5125 186.53734Q86.73125 186.53734 86.2 187.13109Q85.68437 187.70921 85.68437 188.91234ZM91.99687 192.02171L91.99687 185.80296L92.93437 185.80296L92.93437 186.67796Q93.23125 186.20921 93.71562 185.94359Q94.2 185.66234 94.825 185.66234Q95.5125 185.66234 95.95 185.94359Q96.40312 186.22484 96.575 186.74046Q97.325 185.66234 98.49687 185.66234Q99.43437 185.66234 99.91875 186.17796Q100.41875 186.67796 100.41875 187.75609L100.41875 192.02171L99.37187 192.02171L99.37187 188.09984Q99.37187 187.47484 99.2625 187.19359Q99.16875 186.91234 98.90312 186.74046Q98.6375 186.56859 98.2625 186.56859Q97.60625 186.56859 97.16875 187.00609Q96.74687 187.44359 96.74687 188.41234L96.74687 192.02171L95.68437 192.02171L95.68437 187.97484Q95.68437 187.27171 95.41875 186.92796Q95.16875 186.56859 94.59062 186.56859Q94.1375 186.56859 93.7625 186.80296Q93.3875 187.03734 93.21562 187.49046Q93.04375 187.94359 93.04375 188.78734L93.04375 192.02171L91.99687 192.02171ZM102.95 194.41234L102.825 193.42796Q103.16875 193.52171 103.43437 193.52171Q103.77812 193.52171 103.98125 193.39671Q104.2 193.28734 104.34062 193.08421Q104.43437 192.91234 104.66875 192.28734Q104.68437 192.20921 104.7625 192.03734L102.3875 185.80296L103.52812 185.80296L104.825 189.39671Q105.075 190.08421 105.27812 190.84984Q105.46562 190.11546 105.71562 189.42796L107.04375 185.80296L108.09062 185.80296L105.73125 192.13109Q105.34062 193.14671 105.1375 193.53734Q104.85625 194.06859 104.48125 194.30296Q104.12187 194.55296 103.62187 194.55296Q103.325 194.55296 102.95 194.41234ZM111.075 192.02171L111.075 183.42796L112.21562 183.42796L112.21562 191.00609L116.45 191.00609L116.45 192.02171L111.075 192.02171ZM122.05937 191.25609Q121.46562 191.75609 120.91875 191.95921Q120.3875 192.16234 119.7625 192.16234Q118.73125 192.16234 118.18437 191.66234Q117.6375 191.16234 117.6375 190.38109Q117.6375 189.92796 117.84062 189.55296Q118.04375 189.16234 118.3875 188.94359Q118.73125 188.70921 119.15312 188.59984Q119.45 188.50609 120.09062 188.42796Q121.35625 188.28734 121.96562 188.06859Q121.96562 187.84984 121.96562 187.80296Q121.96562 187.14671 121.66875 186.88109Q121.2625 186.53734 120.46562 186.53734Q119.73125 186.53734 119.37187 186.80296Q119.0125 187.05296 118.84062 187.70921L117.80937 187.56859Q117.95 186.91234 118.27812 186.50609Q118.60625 186.09984 119.21562 185.88109Q119.825 185.66234 120.62187 185.66234Q121.41875 185.66234 121.91875 185.84984Q122.41875 186.03734 122.65312 186.31859Q122.8875 186.59984 122.98125 187.03734Q123.02812 187.30296 123.02812 188.00609L123.02812 189.41234Q123.02812 190.88109 123.09062 191.27171Q123.16875 191.66234 123.37187 192.02171L122.2625 192.02171Q122.10625 191.69359 122.05937 191.25609ZM121.96562 188.89671Q121.3875 189.13109 120.24687 189.30296Q119.59062 189.39671 119.325 189.52171Q119.05937 189.63109 118.90312 189.84984Q118.7625 190.06859 118.7625 190.34984Q118.7625 190.77171 119.075 191.05296Q119.40312 191.33421 120.0125 191.33421Q120.62187 191.33421 121.09062 191.06859Q121.575 190.80296 121.79375 190.33421Q121.96562 189.97484 121.96562 189.28734L121.96562 188.89671ZM125.96562 192.02171L124.98125 192.02171L124.98125 183.42796L126.04375 183.42796L126.04375 186.49046Q126.71562 185.66234 127.74687 185.66234Q128.325 185.66234 128.825 185.89671Q129.34062 186.11546 129.66875 186.53734Q130.0125 186.95921 130.2 187.55296Q130.3875 188.14671 130.3875 188.81859Q130.3875 190.41234 129.59062 191.28734Q128.79375 192.16234 127.7 192.16234Q126.59062 192.16234 125.96562 191.24046L125.96562 192.02171ZM125.95 188.86546Q125.95 189.97484 126.2625 190.47484Q126.7625 191.28734 127.60625 191.28734Q128.29375 191.28734 128.79375 190.69359Q129.30937 190.09984 129.30937 188.89671Q129.30937 187.67796 128.825 187.09984Q128.34062 186.52171 127.65312 186.52171Q126.96562 186.52171 126.45 187.13109Q125.95 187.72484 125.95 188.86546Z" fill-rule="nonzero"/><path fill="#9e9e9e" d="M20.66875 209.02171L19.621876 209.02171L19.621876 202.30296Q19.23125 202.66234 18.60625 203.03734Q17.996876 203.39671 17.5125 203.56859L17.5125 202.55296Q18.3875 202.13109 19.04375 201.55296Q19.715626 200.95921 19.996876 200.39671L20.66875 200.39671L20.66875 209.02171ZM23.7 206.77171L24.809376 206.67796Q24.934376 207.49046 25.371876 207.89671Q25.825 208.30296 26.465626 208.30296Q27.215626 208.30296 27.746876 207.72484Q28.278126 207.14671 28.278126 206.20921Q28.278126 205.30296 27.7625 204.78734Q27.2625 204.25609 26.434376 204.25609Q25.934376 204.25609 25.5125 204.49046Q25.10625 204.72484 24.871876 205.08421L23.8875 204.95921L24.715626 200.55296L28.996876 200.55296L28.996876 201.55296L25.559376 201.55296L25.10625 203.86546Q25.871876 203.31859 26.715626 203.31859Q27.840626 203.31859 28.60625 204.09984Q29.3875 204.88109 29.3875 206.11546Q29.3875 207.27171 28.715626 208.13109Q27.8875 209.16234 26.465626 209.16234Q25.29375 209.16234 24.54375 208.50609Q23.809376 207.84984 23.7 206.77171ZM31.29375 209.02171L31.29375 207.81859L32.496876 207.81859L32.496876 209.02171L31.29375 209.02171ZM33.85625 207.03734L34.871876 206.94359Q34.996876 207.66234 35.35625 207.99046Q35.73125 208.30296 36.29375 208.30296Q36.778126 208.30296 37.1375 208.08421Q37.5125 207.84984 37.746876 207.49046Q37.98125 207.11546 38.1375 206.49046Q38.29375 205.84984 38.29375 205.19359Q38.29375 205.11546 38.29375 204.97484Q37.98125 205.47484 37.434376 205.80296Q36.8875 206.11546 36.246876 206.11546Q35.16875 206.11546 34.434376 205.34984Q33.7 204.56859 33.7 203.30296Q33.7 201.99046 34.465626 201.19359Q35.246876 200.39671 36.403126 200.39671Q37.23125 200.39671 37.91875 200.84984Q38.621876 201.30296 38.98125 202.14671Q39.340626 202.97484 39.340626 204.55296Q39.340626 206.19359 38.98125 207.17796Q38.6375 208.14671 37.91875 208.66234Q37.215626 209.16234 36.278126 209.16234Q35.2625 209.16234 34.621876 208.61546Q33.98125 208.05296 33.85625 207.03734ZM38.16875 203.24046Q38.16875 202.33421 37.684376 201.80296Q37.215626 201.27171 36.528126 201.27171Q35.825 201.27171 35.29375 201.84984Q34.778126 202.41234 34.778126 203.33421Q34.778126 204.14671 35.278126 204.66234Q35.778126 205.17796 36.496876 205.17796Q37.23125 205.17796 37.7 204.66234Q38.16875 204.14671 38.16875 203.24046ZM40.903126 202.49046Q40.903126 201.56859 41.35625 200.92796Q41.825 200.28734 42.7 200.28734Q43.5125 200.28734 44.04375 200.86546Q44.575 201.44359 44.575 202.55296Q44.575 203.64671 44.028126 204.24046Q43.496876 204.81859 42.715626 204.81859Q41.934376 204.81859 41.41875 204.24046Q40.903126 203.66234 40.903126 202.49046ZM42.73125 201.00609Q42.340626 201.00609 42.075 201.34984Q41.825 201.69359 41.825 202.59984Q41.825 203.42796 42.075 203.77171Q42.340626 204.09984 42.73125 204.09984Q43.1375 204.09984 43.3875 203.75609Q43.653126 203.41234 43.653126 202.52171Q43.653126 201.67796 43.3875 201.34984Q43.121876 201.00609 42.73125 201.00609ZM42.73125 209.33421L47.434376 200.28734L48.29375 200.28734L43.60625 209.33421L42.73125 209.33421ZM46.45 207.00609Q46.45 206.08421 46.903126 205.44359Q47.371876 204.80296 48.2625 204.80296Q49.075 204.80296 49.60625 205.38109Q50.1375 205.94359 50.1375 207.06859Q50.1375 208.16234 49.590626 208.75609Q49.059376 209.33421 48.2625 209.33421Q47.496876 209.33421 46.965626 208.75609Q46.45 208.17796 46.45 207.00609ZM48.29375 205.52171Q47.8875 205.52171 47.621876 205.86546Q47.371876 206.20921 47.371876 207.11546Q47.371876 207.92796 47.6375 208.27171Q47.903126 208.61546 48.29375 208.61546Q48.684376 208.61546 48.95 208.27171Q49.215626 207.92796 49.215626 207.02171Q49.215626 206.19359 48.95 205.86546Q48.684376 205.52171 48.29375 205.52171Z" fill-rule="nonzero"/><path stroke="#757575" stroke-width="1.0" stroke-linecap="butt" d="M16.2 196.52171L157.6 196.52171L171.22762 196.52171" fill-rule="nonzero"/><path fill="#9e9e9e" d="M173.22762 196.52171C173.22762 195.41714 172.3322 194.52171 171.22762 194.52171C170.12305 194.52171 169.22762 195.41714 169.22762 196.52171C169.22762 197.62628 170.12305 198.52171 171.22762 198.52171C172.3322 198.52171 173.22762 197.62628 173.22762 196.52171" fill-rule="nonzero"/><path fill="#757575" d="M17.16875 287.8L17.16875 279.20624L18.29375 279.20624L18.29375 282.7375L22.7625 282.7375L22.7625 279.20624L23.903126 279.20624L23.903126 287.8L22.7625 287.8L22.7625 283.7531L18.29375 283.7531L18.29375 287.8L17.16875 287.8ZM30.075 287.8L30.075 286.8781Q29.340626 287.9406 28.090626 287.9406Q27.54375 287.9406 27.059376 287.7375Q26.590626 287.51874 26.35625 287.20624Q26.121876 286.8781 26.028126 286.40936Q25.965626 286.1125 25.965626 285.425L25.965626 281.58124L27.028126 281.58124L27.028126 285.03436Q27.028126 285.84686 27.090626 286.14374Q27.184376 286.55 27.496876 286.8Q27.825 287.03436 28.309376 287.03436Q28.778126 287.03436 29.184376 286.8Q29.60625 286.55 29.778126 286.1281Q29.965626 285.70624 29.965626 284.90936L29.965626 281.58124L31.0125 281.58124L31.0125 287.8L30.075 287.8ZM32.996876 287.8L32.996876 281.58124L33.934376 281.58124L33.934376 282.45624Q34.23125 281.9875 34.715626 281.72186Q35.2 281.4406 35.825 281.4406Q36.5125 281.4406 36.95 281.72186Q37.403126 282.0031 37.575 282.51874Q38.325 281.4406 39.496876 281.4406Q40.434376 281.4406 40.91875 281.95624Q41.41875 282.45624 41.41875 283.53436L41.41875 287.8L40.371876 287.8L40.371876 283.8781Q40.371876 283.2531 40.2625 282.97186Q40.16875 282.6906 39.903126 282.51874Q39.6375 282.34686 39.2625 282.34686Q38.60625 282.34686 38.16875 282.78436Q37.746876 283.22186 37.746876 284.1906L37.746876 287.8L36.684376 287.8L36.684376 283.7531Q36.684376 283.05 36.41875 282.70624Q36.16875 282.34686 35.590626 282.34686Q35.1375 282.34686 34.7625 282.58124Q34.3875 282.8156 34.215626 283.26874Q34.04375 283.72186 34.04375 284.5656L34.04375 287.8L32.996876 287.8ZM48.059376 287.03436Q47.465626 287.53436 46.91875 287.7375Q46.3875 287.9406 45.7625 287.9406Q44.73125 287.9406 44.184376 287.4406Q43.6375 286.9406 43.6375 286.15936Q43.6375 285.70624 43.840626 285.33124Q44.04375 284.9406 44.3875 284.72186Q44.73125 284.4875 45.153126 284.3781Q45.45 284.28436 46.090626 284.20624Q47.35625 284.0656 47.965626 283.84686Q47.965626 283.6281 47.965626 283.58124Q47.965626 282.925 47.66875 282.65936Q47.2625 282.3156 46.465626 282.3156Q45.73125 282.3156 45.371876 282.58124Q45.0125 282.83124 44.840626 283.4875L43.809376 283.34686Q43.95 282.6906 44.278126 282.28436Q44.60625 281.8781 45.215626 281.65936Q45.825 281.4406 46.621876 281.4406Q47.41875 281.4406 47.91875 281.6281Q48.41875 281.8156 48.653126 282.09686Q48.8875 282.3781 48.98125 282.8156Q49.028126 283.08124 49.028126 283.78436L49.028126 285.1906Q49.028126 286.65936 49.090626 287.05Q49.16875 287.4406 49.371876 287.8L48.2625 287.8Q48.10625 287.47186 48.059376 287.03436ZM47.965626 284.675Q47.3875 284.90936 46.246876 285.08124Q45.590626 285.175 45.325 285.3Q45.059376 285.40936 44.903126 285.6281Q44.7625 285.84686 44.7625 286.1281Q44.7625 286.55 45.075 286.83124Q45.403126 287.1125 46.0125 287.1125Q46.621876 287.1125 47.090626 286.84686Q47.575 286.58124 47.79375 286.1125Q47.965626 285.7531 47.965626 285.0656L47.965626 284.675ZM50.996876 287.8L50.996876 281.58124L51.934376 281.58124L51.934376 282.45624Q52.621876 281.4406 53.91875 281.4406Q54.48125 281.4406 54.95 281.64374Q55.434376 281.84686 55.66875 282.175Q55.903126 282.5031 55.996876 282.9406Q56.04375 283.2375 56.04375 283.97186L56.04375 287.8L54.996876 287.8L54.996876 284.01874Q54.996876 283.3625 54.871876 283.05Q54.746876 282.7375 54.434376 282.55Q54.121876 282.34686 53.7 282.34686Q53.028126 282.34686 52.528126 282.78436Q52.04375 283.20624 52.04375 284.39374L52.04375 287.8L50.996876 287.8ZM60.184376 287.8L63.48125 279.20624L64.7 279.20624L68.21562 287.8L66.93437 287.8L65.91875 285.1906L62.340626 285.1906L61.3875 287.8L60.184376 287.8ZM62.66875 284.26874L65.575 284.26874L64.68437 281.89374Q64.2625 280.8156 64.075 280.1125Q63.903126 280.9406 63.60625 281.7531L62.66875 284.26874ZM67.99687 287.8L67.99687 281.58124L68.93437 281.58124L68.93437 282.45624Q69.62187 281.4406 70.91875 281.4406Q71.48125 281.4406 71.95 281.64374Q72.43437 281.84686 72.66875 282.175Q72.90312 282.5031 72.99687 282.9406Q73.04375 283.2375 73.04375 283.97186L73.04375 287.8L71.99687 287.8L71.99687 284.01874Q71.99687 283.3625 71.87187 283.05Q71.74687 282.7375 71.43437 282.55Q71.12187 282.34686 70.7 282.34686Q70.02812 282.34686 69.52812 282.78436Q69.04375 283.20624 69.04375 284.39374L69.04375 287.8L67.99687 287.8ZM79.05937 287.03436Q78.46562 287.53436 77.91875 287.7375Q77.3875 287.9406 76.7625 287.9406Q75.73125 287.9406 75.18437 287.4406Q74.6375 286.9406 74.6375 286.15936Q74.6375 285.70624 74.84062 285.33124Q75.04375 284.9406 75.3875 284.72186Q75.73125 284.4875 76.15312 284.3781Q76.45 284.28436 77.09062 284.20624Q78.35625 284.0656 78.96562 283.84686Q78.96562 283.6281 78.96562 283.58124Q78.96562 282.925 78.66875 282.65936Q78.2625 282.3156 77.46562 282.3156Q76.73125 282.3156 76.37187 282.58124Q76.0125 282.83124 75.84062 283.4875L74.80937 283.34686Q74.95 282.6906 75.27812 282.28436Q75.60625 281.8781 76.21562 281.65936Q76.825 281.4406 77.62187 281.4406Q78.41875 281.4406 78.91875 281.6281Q79.41875 281.8156 79.65312 282.09686Q79.8875 282.3781 79.98125 282.8156Q80.02812 283.08124 80.02812 283.78436L80.02812 285.1906Q80.02812 286.65936 80.09062 287.05Q80.16875 287.4406 80.37187 287.8L79.2625 287.8Q79.10625 287.47186 79.05937 287.03436ZM78.96562 284.675Q78.3875 284.90936 77.24687 285.08124Q76.59062 285.175 76.325 285.3Q76.05937 285.40936 75.90312 285.6281Q75.7625 285.84686 75.7625 286.1281Q75.7625 286.55 76.075 286.83124Q76.40312 287.1125 77.0125 287.1125Q77.62187 287.1125 78.09062 286.84686Q78.575 286.58124 78.79375 286.1125Q78.96562 285.7531 78.96562 285.0656L78.96562 284.675ZM84.29375 286.8625L84.45 287.78436Q83.99687 287.8781 83.65312 287.8781Q83.075 287.8781 82.7625 287.70624Q82.45 287.51874 82.30937 287.22186Q82.18437 286.925 82.18437 285.97186L82.18437 282.39374L81.41875 282.39374L81.41875 281.58124L82.18437 281.58124L82.18437 280.03436L83.23125 279.40936L83.23125 281.58124L84.29375 281.58124L84.29375 282.39374L83.23125 282.39374L83.23125 286.03436Q83.23125 286.4875 83.27812 286.6125Q83.34062 286.7375 83.46562 286.8156Q83.59062 286.89374 83.825 286.89374Q84.0125 286.89374 84.29375 286.8625ZM84.60625 284.6906Q84.60625 282.95624 85.55937 282.1281Q86.35625 281.4406 87.5125 281.4406Q88.79375 281.4406 89.60625 282.28436Q90.43437 283.1125 90.43437 284.59686Q90.43437 285.8 90.075 286.4875Q89.71562 287.175 89.0125 287.5656Q88.325 287.9406 87.5125 287.9406Q86.21562 287.9406 85.40312 287.1125Q84.60625 286.26874 84.60625 284.6906ZM85.68437 284.6906Q85.68437 285.8781 86.2 286.47186Q86.73125 287.0656 87.5125 287.0656Q88.30937 287.0656 88.825 286.47186Q89.34062 285.8781 89.34062 284.65936Q89.34062 283.5031 88.80937 282.90936Q88.29375 282.3156 87.5125 282.3156Q86.73125 282.3156 86.2 282.90936Q85.68437 283.4875 85.68437 284.6906ZM91.99687 287.8L91.99687 281.58124L92.93437 281.58124L92.93437 282.45624Q93.23125 281.9875 93.71562 281.72186Q94.2 281.4406 94.825 281.4406Q95.5125 281.4406 95.95 281.72186Q96.40312 282.0031 96.575 282.51874Q97.325 281.4406 98.49687 281.4406Q99.43437 281.4406 99.91875 281.95624Q100.41875 282.45624 100.41875 283.53436L100.41875 287.8L99.37187 287.8L99.37187 283.8781Q99.37187 283.2531 99.2625 282.97186Q99.16875 282.6906 98.90312 282.51874Q98.6375 282.34686 98.2625 282.34686Q97.60625 282.34686 97.16875 282.78436Q96.74687 283.22186 96.74687 284.1906L96.74687 287.8L95.68437 287.8L95.68437 283.7531Q95.68437 283.05 95.41875 282.70624Q95.16875 282.34686 94.59062 282.34686Q94.1375 282.34686 93.7625 282.58124Q93.3875 282.8156 93.21562 283.26874Q93.04375 283.72186 93.04375 284.5656L93.04375 287.8L91.99687 287.8ZM102.95 290.1906L102.825 289.20624Q103.16875 289.3 103.43437 289.3Q103.77812 289.3 103.98125 289.175Q104.2 289.0656 104.34062 288.8625Q104.43437 288.6906 104.66875 288.0656Q104.68437 287.9875 104.7625 287.8156L102.3875 281.58124L103.52812 281.58124L104.825 285.175Q105.075 285.8625 105.27812 286.6281Q105.46562 285.89374 105.71562 285.20624L107.04375 281.58124L108.09062 281.58124L105.73125 287.90936Q105.34062 288.925 105.1375 289.3156Q104.85625 289.84686 104.48125 290.08124Q104.12187 290.33124 103.62187 290.33124Q103.325 290.33124 102.95 290.1906Z" fill-rule="nonzero"/><path fill="#9e9e9e" d="M22.246876 303.78436L22.246876 304.8L16.559376 304.8Q16.559376 304.425 16.684376 304.0656Q16.903126 303.4875 17.371876 302.925Q17.85625 302.3625 18.7625 301.6281Q20.16875 300.47186 20.653126 299.8Q21.153126 299.1281 21.153126 298.53436Q21.153126 297.90936 20.7 297.4875Q20.246876 297.05 19.528126 297.05Q18.7625 297.05 18.309376 297.5031Q17.85625 297.95624 17.840626 298.76874L16.7625 298.65936Q16.871876 297.4406 17.590626 296.8156Q18.325 296.175 19.559376 296.175Q20.79375 296.175 21.5125 296.8625Q22.23125 297.55 22.23125 298.5656Q22.23125 299.08124 22.0125 299.58124Q21.809376 300.0656 21.309376 300.6281Q20.825 301.175 19.7 302.1281Q18.746876 302.925 18.465626 303.22186Q18.2 303.5031 18.028126 303.78436L22.246876 303.78436ZM27.075 304.8L27.075 302.7375L23.35625 302.7375L23.35625 301.76874L27.278126 296.20624L28.1375 296.20624L28.1375 301.76874L29.29375 301.76874L29.29375 302.7375L28.1375 302.7375L28.1375 304.8L27.075 304.8ZM27.075 301.76874L27.075 297.90936L24.3875 301.76874L27.075 301.76874ZM31.29375 304.8L31.29375 303.59686L32.496876 303.59686L32.496876 304.8L31.29375 304.8ZM35.325 300.14374Q34.66875 299.89374 34.340626 299.45624Q34.028126 299.0031 34.028126 298.39374Q34.028126 297.45624 34.7 296.8156Q35.3875 296.175 36.496876 296.175Q37.621876 296.175 38.309376 296.83124Q38.996876 297.4875 38.996876 298.425Q38.996876 299.01874 38.684376 299.45624Q38.371876 299.89374 37.73125 300.14374Q38.528126 300.39374 38.934376 300.97186Q39.340626 301.55 39.340626 302.34686Q39.340626 303.4406 38.559376 304.1906Q37.79375 304.9406 36.5125 304.9406Q35.246876 304.9406 34.465626 304.1906Q33.684376 303.4406 33.684376 302.3156Q33.684376 301.47186 34.10625 300.90936Q34.54375 300.34686 35.325 300.14374ZM35.10625 298.34686Q35.10625 298.95624 35.496876 299.34686Q35.903126 299.7375 36.528126 299.7375Q37.1375 299.7375 37.528126 299.3625Q37.91875 298.97186 37.91875 298.40936Q37.91875 297.83124 37.5125 297.4406Q37.10625 297.03436 36.5125 297.03436Q35.903126 297.03436 35.496876 297.425Q35.10625 297.8156 35.10625 298.34686ZM34.778126 302.3156Q34.778126 302.76874 34.98125 303.1906Q35.2 303.6125 35.621876 303.84686Q36.04375 304.08124 36.528126 304.08124Q37.278126 304.08124 37.7625 303.59686Q38.2625 303.1125 38.2625 302.3625Q38.2625 301.59686 37.7625 301.09686Q37.2625 300.59686 36.496876 300.59686Q35.746876 300.59686 35.2625 301.09686Q34.778126 301.58124 34.778126 302.3156ZM40.903126 298.26874Q40.903126 297.34686 41.35625 296.70624Q41.825 296.0656 42.7 296.0656Q43.5125 296.0656 44.04375 296.64374Q44.575 297.22186 44.575 298.33124Q44.575 299.425 44.028126 300.01874Q43.496876 300.59686 42.715626 300.59686Q41.934376 300.59686 41.41875 300.01874Q40.903126 299.4406 40.903126 298.26874ZM42.73125 296.78436Q42.340626 296.78436 42.075 297.1281Q41.825 297.47186 41.825 298.3781Q41.825 299.20624 42.075 299.55Q42.340626 299.8781 42.73125 299.8781Q43.1375 299.8781 43.3875 299.53436Q43.653126 299.1906 43.653126 298.3Q43.653126 297.45624 43.3875 297.1281Q43.121876 296.78436 42.73125 296.78436ZM42.73125 305.1125L47.434376 296.0656L48.29375 296.0656L43.60625 305.1125L42.73125 305.1125ZM46.45 302.78436Q46.45 301.8625 46.903126 301.22186Q47.371876 300.58124 48.2625 300.58124Q49.075 300.58124 49.60625 301.15936Q50.1375 301.72186 50.1375 302.84686Q50.1375 303.9406 49.590626 304.53436Q49.059376 305.1125 48.2625 305.1125Q47.496876 305.1125 46.965626 304.53436Q46.45 303.95624 46.45 302.78436ZM48.29375 301.3Q47.8875 301.3 47.621876 301.64374Q47.371876 301.9875 47.371876 302.89374Q47.371876 303.70624 47.6375 304.05Q47.903126 304.39374 48.29375 304.39374Q48.684376 304.39374 48.95 304.05Q49.215626 303.70624 49.215626 302.8Q49.215626 301.97186 48.95 301.64374Q48.684376 301.3 48.29375 301.3Z" fill-rule="nonzero"/><path stroke="#757575" stroke-width="1.0" stroke-linecap="butt" d="M16.2 292.3L157.6 292.3L273.57098 299.97983" fill-rule="nonzero"/><path fill="#9e9e9e" d="M275.57098 299.97983C275.57098 298.87524 274.67554 297.97983 273.57098 297.97983C272.4664 297.97983 271.57098 298.87524 271.57098 299.97983C271.57098 301.08438 272.4664 301.97983 273.57098 301.97983C274.67554 301.97983 275.57098 301.08438 275.57098 299.97983" fill-rule="nonzero"/><path fill="#757575" d="M450.34686 61.42832L451.40936 61.33457Q451.4875 61.99082 451.76874 62.39707Q452.05 62.80332 452.6281 63.068947Q453.22186 63.318947 453.95624 63.318947Q454.59686 63.318947 455.09686 63.131447Q455.59686 62.92832 455.83124 62.600197Q456.08124 62.256447 456.08124 61.86582Q456.08124 61.45957 455.84686 61.162697Q455.6125 60.850197 455.08124 60.64707Q454.72186 60.506447 453.53436 60.225197Q452.3625 59.943947 451.89374 59.693947Q451.26874 59.36582 450.97186 58.89707Q450.675 58.412697 450.675 57.818947Q450.675 57.17832 451.03436 56.61582Q451.40936 56.037697 452.1125 55.756447Q452.83124 55.45957 453.6906 55.45957Q454.64374 55.45957 455.3781 55.77207Q456.1125 56.068947 456.5031 56.67832Q456.89374 57.27207 456.925 58.02207L455.83124 58.100197Q455.7375 57.287697 455.22186 56.881447Q454.72186 56.45957 453.7375 56.45957Q452.70624 56.45957 452.2375 56.83457Q451.76874 57.20957 451.76874 57.74082Q451.76874 58.20957 452.09686 58.506447Q452.425 58.80332 453.8 59.11582Q455.1906 59.42832 455.70624 59.662697Q456.45624 60.02207 456.8156 60.55332Q457.175 61.068947 457.175 61.77207Q457.175 62.45957 456.78436 63.068947Q456.39374 63.662697 455.65936 64.00645Q454.925 64.33457 454.0031 64.33457Q452.83124 64.33457 452.03436 64.00645Q451.2531 63.662697 450.8 62.975197Q450.3625 62.287697 450.34686 61.42832ZM458.20624 61.08457Q458.20624 59.350197 459.15936 58.52207Q459.95624 57.83457 461.1125 57.83457Q462.39374 57.83457 463.20624 58.67832Q464.03436 59.506447 464.03436 60.99082Q464.03436 62.193947 463.675 62.881447Q463.3156 63.568947 462.6125 63.95957Q461.925 64.33457 461.1125 64.33457Q459.8156 64.33457 459.0031 63.506447Q458.20624 62.662697 458.20624 61.08457ZM459.28436 61.08457Q459.28436 62.27207 459.8 62.86582Q460.33124 63.45957 461.1125 63.45957Q461.90936 63.45957 462.425 62.86582Q462.9406 62.27207 462.9406 61.05332Q462.9406 59.89707 462.40936 59.30332Q461.89374 58.70957 461.1125 58.70957Q460.33124 58.70957 459.8 59.30332Q459.28436 59.881447 459.28436 61.08457ZM465.84686 64.19395L465.84686 58.787697L464.90936 58.787697L464.90936 57.975197L465.84686 57.975197L465.84686 57.30332Q465.84686 56.67832 465.95624 56.381447Q466.1125 55.95957 466.4875 55.70957Q466.8781 55.45957 467.5656 55.45957Q468.01874 55.45957 468.55 55.568947L468.39374 56.475197Q468.0656 56.42832 467.76874 56.42832Q467.28436 56.42832 467.08124 56.631447Q466.89374 56.83457 466.89374 57.39707L466.89374 57.975197L468.1125 57.975197L468.1125 58.787697L466.89374 58.787697L466.89374 64.19395L465.84686 64.19395ZM470.89374 63.256447L471.05 64.17832Q470.59686 64.27207 470.2531 64.27207Q469.675 64.27207 469.3625 64.1002Q469.05 63.912697 468.90936 63.61582Q468.78436 63.318947 468.78436 62.36582L468.78436 58.787697L468.01874 58.787697L468.01874 57.975197L468.78436 57.975197L468.78436 56.42832L469.83124 55.80332L469.83124 57.975197L470.89374 57.975197L470.89374 58.787697L469.83124 58.787697L469.83124 62.42832Q469.83124 62.881447 469.8781 63.006447Q469.9406 63.131447 470.0656 63.20957Q470.1906 63.287697 470.425 63.287697Q470.6125 63.287697 470.89374 63.256447ZM472.7375 64.19395L470.83124 57.975197L471.925 57.975197L472.90936 61.568947L473.28436 62.89707Q473.3156 62.80332 473.6125 61.61582L474.59686 57.975197L475.675 57.975197L476.6125 61.58457L476.925 62.77207L477.28436 61.568947L478.34686 57.975197L479.3781 57.975197L477.425 64.19395L476.33124 64.19395L475.34686 60.45957L475.09686 59.412697L473.84686 64.19395L472.7375 64.19395ZM484.65936 63.42832Q484.0656 63.92832 483.51874 64.13145Q482.9875 64.33457 482.3625 64.33457Q481.33124 64.33457 480.78436 63.83457Q480.2375 63.33457 480.2375 62.55332Q480.2375 62.100197 480.4406 61.725197Q480.64374 61.33457 480.9875 61.11582Q481.33124 60.881447 481.7531 60.77207Q482.05 60.67832 482.6906 60.600197Q483.95624 60.45957 484.5656 60.24082Q484.5656 60.02207 484.5656 59.975197Q484.5656 59.318947 484.26874 59.05332Q483.8625 58.70957 483.0656 58.70957Q482.33124 58.70957 481.97186 58.975197Q481.6125 59.225197 481.4406 59.881447L480.40936 59.74082Q480.55 59.08457 480.8781 58.67832Q481.20624 58.27207 481.8156 58.05332Q482.425 57.83457 483.22186 57.83457Q484.01874 57.83457 484.51874 58.02207Q485.01874 58.20957 485.2531 58.49082Q485.4875 58.77207 485.58124 59.20957Q485.6281 59.475197 485.6281 60.17832L485.6281 61.58457Q485.6281 63.05332 485.6906 63.443947Q485.76874 63.83457 485.97186 64.19395L484.8625 64.19395Q484.70624 63.86582 484.65936 63.42832ZM484.5656 61.068947Q483.9875 61.30332 482.84686 61.475197Q482.1906 61.568947 481.925 61.693947Q481.65936 61.80332 481.5031 62.02207Q481.3625 62.24082 481.3625 62.52207Q481.3625 62.943947 481.675 63.225197Q482.0031 63.506447 482.6125 63.506447Q483.22186 63.506447 483.6906 63.24082Q484.175 62.975197 484.39374 62.506447Q484.5656 62.14707 484.5656 61.45957L484.5656 61.068947ZM487.58124 64.19395L487.58124 57.975197L488.53436 57.975197L488.53436 58.912697Q488.89374 58.256447 489.1906 58.05332Q489.5031 57.83457 489.8781 57.83457Q490.40936 57.83457 490.95624 58.162697L490.59686 59.14707Q490.20624 58.912697 489.83124 58.912697Q489.47186 58.912697 489.1906 59.131447Q488.925 59.33457 488.8156 59.70957Q488.6281 60.27207 488.6281 60.92832L488.6281 64.19395L487.58124 64.19395ZM495.84686 62.193947L496.9406 62.318947Q496.6906 63.27207 495.9875 63.80332Q495.28436 64.33457 494.20624 64.33457Q492.84686 64.33457 492.03436 63.49082Q491.2375 62.64707 491.2375 61.131447Q491.2375 59.568947 492.05 58.70957Q492.8625 57.83457 494.14374 57.83457Q495.39374 57.83457 496.175 58.67832Q496.97186 59.52207 496.97186 61.068947Q496.97186 61.162697 496.97186 61.350197L492.33124 61.350197Q492.39374 62.381447 492.90936 62.92832Q493.425 63.45957 494.20624 63.45957Q494.78436 63.45957 495.1906 63.162697Q495.6125 62.850197 495.84686 62.193947ZM492.39374 60.49082L495.8625 60.49082Q495.8 59.693947 495.47186 59.30332Q494.95624 58.693947 494.15936 58.693947Q493.425 58.693947 492.925 59.17832Q492.4406 59.662697 492.39374 60.49082ZM501.7531 64.19395L501.7531 55.600197L507.95624 55.600197L507.95624 56.61582L502.89374 56.61582L502.89374 59.24082L507.64374 59.24082L507.64374 60.256447L502.89374 60.256447L502.89374 63.17832L508.15936 63.17832L508.15936 64.19395L501.7531 64.19395ZM509.59686 64.19395L509.59686 57.975197L510.53436 57.975197L510.53436 58.850197Q511.22186 57.83457 512.51874 57.83457Q513.08124 57.83457 513.55 58.037697Q514.03436 58.24082 514.26874 58.568947Q514.5031 58.89707 514.59686 59.33457Q514.64374 59.631447 514.64374 60.36582L514.64374 64.19395L513.59686 64.19395L513.59686 60.412697Q513.59686 59.756447 513.47186 59.443947Q513.34686 59.131447 513.03436 58.943947Q512.72186 58.74082 512.3 58.74082Q511.6281 58.74082 511.1281 59.17832Q510.64374 59.600197 510.64374 60.787697L510.64374 64.19395L509.59686 64.19395ZM516.39374 64.70957L517.425 64.86582Q517.4875 65.33457 517.78436 65.55332Q518.175 65.8502 518.84686 65.8502Q519.58124 65.8502 519.97186 65.55332Q520.3781 65.25645 520.51874 64.74082Q520.6125 64.4127 520.59686 63.381447Q519.90936 64.19395 518.8781 64.19395Q517.59686 64.19395 516.89374 63.27207Q516.1906 62.33457 516.1906 61.05332Q516.1906 60.162697 516.5031 59.412697Q516.83124 58.64707 517.4406 58.24082Q518.05 57.83457 518.8781 57.83457Q519.9875 57.83457 520.70624 58.725197L520.70624 57.975197L521.675 57.975197L521.675 63.350197Q521.675 64.80332 521.3781 65.4127Q521.08124 66.02207 520.4406 66.36582Q519.8 66.7252 518.8625 66.7252Q517.7531 66.7252 517.0656 66.2252Q516.3781 65.7252 516.39374 64.70957ZM517.26874 60.975197Q517.26874 62.193947 517.7531 62.756447Q518.2375 63.318947 518.97186 63.318947Q519.70624 63.318947 520.1906 62.756447Q520.6906 62.193947 520.6906 61.006447Q520.6906 59.86582 520.175 59.287697Q519.675 58.70957 518.95624 58.70957Q518.2531 58.70957 517.7531 59.287697Q517.26874 59.850197 517.26874 60.975197ZM523.59686 56.818947L523.59686 55.600197L524.65936 55.600197L524.65936 56.818947L523.59686 56.818947ZM523.59686 64.19395L523.59686 57.975197L524.65936 57.975197L524.65936 64.19395L523.59686 64.19395ZM526.59686 64.19395L526.59686 57.975197L527.53436 57.975197L527.53436 58.850197Q528.22186 57.83457 529.51874 57.83457Q530.08124 57.83457 530.55 58.037697Q531.03436 58.24082 531.26874 58.568947Q531.5031 58.89707 531.59686 59.33457Q531.64374 59.631447 531.64374 60.36582L531.64374 64.19395L530.59686 64.19395L530.59686 60.412697Q530.59686 59.756447 530.47186 59.443947Q530.34686 59.131447 530.03436 58.943947Q529.72186 58.74082 529.3 58.74082Q528.6281 58.74082 528.1281 59.17832Q527.64374 59.600197 527.64374 60.787697L527.64374 64.19395L526.59686 64.19395ZM537.84686 62.193947L538.9406 62.318947Q538.6906 63.27207 537.9875 63.80332Q537.28436 64.33457 536.20624 64.33457Q534.84686 64.33457 534.03436 63.49082Q533.2375 62.64707 533.2375 61.131447Q533.2375 59.568947 534.05 58.70957Q534.8625 57.83457 536.14374 57.83457Q537.39374 57.83457 538.175 58.67832Q538.97186 59.52207 538.97186 61.068947Q538.97186 61.162697 538.97186 61.350197L534.33124 61.350197Q534.39374 62.381447 534.90936 62.92832Q535.425 63.45957 536.20624 63.45957Q536.78436 63.45957 537.1906 63.162697Q537.6125 62.850197 537.84686 62.193947ZM534.39374 60.49082L537.8625 60.49082Q537.8 59.693947 537.47186 59.30332Q536.95624 58.693947 536.15936 58.693947Q535.425 58.693947 534.925 59.17832Q534.4406 59.662697 534.39374 60.49082ZM544.84686 62.193947L545.9406 62.318947Q545.6906 63.27207 544.9875 63.80332Q544.28436 64.33457 543.20624 64.33457Q541.84686 64.33457 541.03436 63.49082Q540.2375 62.64707 540.2375 61.131447Q540.2375 59.568947 541.05 58.70957Q541.8625 57.83457 543.14374 57.83457Q544.39374 57.83457 545.175 58.67832Q545.97186 59.52207 545.97186 61.068947Q545.97186 61.162697 545.97186 61.350197L541.33124 61.350197Q541.39374 62.381447 541.90936 62.92832Q542.425 63.45957 543.20624 63.45957Q543.78436 63.45957 544.1906 63.162697Q544.6125 62.850197 544.84686 62.193947ZM541.39374 60.49082L544.8625 60.49082Q544.8 59.693947 544.47186 59.30332Q543.95624 58.693947 543.15936 58.693947Q542.425 58.693947 541.925 59.17832Q541.4406 59.662697 541.39374 60.49082ZM547.58124 64.19395L547.58124 57.975197L548.53436 57.975197L548.53436 58.912697Q548.89374 58.256447 549.1906 58.05332Q549.5031 57.83457 549.8781 57.83457Q550.40936 57.83457 550.95624 58.162697L550.59686 59.14707Q550.20624 58.912697 549.83124 58.912697Q549.47186 58.912697 549.1906 59.131447Q548.925 59.33457 548.8156 59.70957Q548.6281 60.27207 548.6281 60.92832L548.6281 64.19395L547.58124 64.19395ZM551.59686 56.818947L551.59686 55.600197L552.65936 55.600197L552.65936 56.818947L551.59686 56.818947ZM551.59686 64.19395L551.59686 57.975197L552.65936 57.975197L552.65936 64.19395L551.59686 64.19395ZM554.59686 64.19395L554.59686 57.975197L555.53436 57.975197L555.53436 58.850197Q556.22186 57.83457 557.51874 57.83457Q558.08124 57.83457 558.55 58.037697Q559.03436 58.24082 559.26874 58.568947Q559.5031 58.89707 559.59686 59.33457Q559.64374 59.631447 559.64374 60.36582L559.64374 64.19395L558.59686 64.19395L558.59686 60.412697Q558.59686 59.756447 558.47186 59.443947Q558.34686 59.131447 558.03436 58.943947Q557.72186 58.74082 557.3 58.74082Q556.6281 58.74082 556.1281 59.17832Q555.64374 59.600197 555.64374 60.787697L555.64374 64.19395L554.59686 64.19395ZM561.39374 64.70957L562.425 64.86582Q562.4875 65.33457 562.78436 65.55332Q563.175 65.8502 563.84686 65.8502Q564.58124 65.8502 564.97186 65.55332Q565.3781 65.25645 565.51874 64.74082Q565.6125 64.4127 565.59686 63.381447Q564.90936 64.19395 563.8781 64.19395Q562.59686 64.19395 561.89374 63.27207Q561.1906 62.33457 561.1906 61.05332Q561.1906 60.162697 561.5031 59.412697Q561.83124 58.64707 562.4406 58.24082Q563.05 57.83457 563.8781 57.83457Q564.9875 57.83457 565.70624 58.725197L565.70624 57.975197L566.675 57.975197L566.675 63.350197Q566.675 64.80332 566.3781 65.4127Q566.08124 66.02207 565.4406 66.36582Q564.8 66.7252 563.8625 66.7252Q562.7531 66.7252 562.0656 66.2252Q561.3781 65.7252 561.39374 64.70957ZM562.26874 60.975197Q562.26874 62.193947 562.7531 62.756447Q563.2375 63.318947 563.97186 63.318947Q564.70624 63.318947 565.1906 62.756447Q565.6906 62.193947 565.6906 61.006447Q565.6906 59.86582 565.175 59.287697Q564.675 58.70957 563.95624 58.70957Q563.2531 58.70957 562.7531 59.287697Q562.26874 59.850197 562.26874 60.975197Z" fill-rule="nonzero"/><path fill="#9e9e9e" d="M537.26874 81.19395L536.22186 81.19395L536.22186 74.4752Q535.83124 74.83457 535.20624 75.20957Q534.59686 75.56895 534.1125 75.74082L534.1125 74.7252Q534.9875 74.30332 535.64374 73.7252Q536.3156 73.13145 536.59686 72.56895L537.26874 72.56895L537.26874 81.19395ZM540.3 78.92832L541.3625 78.7877Q541.53436 79.67832 541.97186 80.08457Q542.40936 80.4752 543.03436 80.4752Q543.78436 80.4752 544.3 79.95957Q544.8156 79.44395 544.8156 78.67832Q544.8156 77.95957 544.33124 77.49082Q543.8625 77.00645 543.1281 77.00645Q542.83124 77.00645 542.3781 77.13145L542.5031 76.19395Q542.6125 76.20957 542.675 76.20957Q543.34686 76.20957 543.8781 75.86582Q544.425 75.50645 544.425 74.77207Q544.425 74.19395 544.03436 73.81895Q543.64374 73.42832 543.01874 73.42832Q542.40936 73.42832 541.9875 73.81895Q541.58124 74.20957 541.47186 74.9752L540.40936 74.7877Q540.59686 73.74082 541.28436 73.1627Q541.97186 72.56895 542.9875 72.56895Q543.6906 72.56895 544.28436 72.88145Q544.8781 73.17832 545.1906 73.69395Q545.5031 74.20957 545.5031 74.80332Q545.5031 75.3502 545.20624 75.81895Q544.90936 76.27207 544.33124 76.5377Q545.08124 76.70957 545.5031 77.27207Q545.925 77.81895 545.925 78.6627Q545.925 79.7877 545.09686 80.56895Q544.28436 81.3502 543.03436 81.3502Q541.90936 81.3502 541.15936 80.67832Q540.40936 79.99082 540.3 78.92832ZM547.89374 81.19395L547.89374 79.99082L549.09686 79.99082L549.09686 81.19395L547.89374 81.19395ZM551.925 76.5377Q551.26874 76.2877 550.9406 75.8502Q550.6281 75.39707 550.6281 74.7877Q550.6281 73.8502 551.3 73.20957Q551.9875 72.56895 553.09686 72.56895Q554.22186 72.56895 554.90936 73.2252Q555.59686 73.88145 555.59686 74.81895Q555.59686 75.4127 555.28436 75.8502Q554.97186 76.2877 554.33124 76.5377Q555.1281 76.7877 555.53436 77.36582Q555.9406 77.94395 555.9406 78.74082Q555.9406 79.83457 555.15936 80.58457Q554.39374 81.33457 553.1125 81.33457Q551.84686 81.33457 551.0656 80.58457Q550.28436 79.83457 550.28436 78.70957Q550.28436 77.86582 550.70624 77.30332Q551.14374 76.74082 551.925 76.5377ZM551.70624 74.74082Q551.70624 75.3502 552.09686 75.74082Q552.5031 76.13145 553.1281 76.13145Q553.7375 76.13145 554.1281 75.75645Q554.51874 75.36582 554.51874 74.80332Q554.51874 74.2252 554.1125 73.83457Q553.70624 73.42832 553.1125 73.42832Q552.5031 73.42832 552.09686 73.81895Q551.70624 74.20957 551.70624 74.74082ZM551.3781 78.70957Q551.3781 79.1627 551.58124 79.58457Q551.8 80.00645 552.22186 80.24082Q552.64374 80.4752 553.1281 80.4752Q553.8781 80.4752 554.3625 79.99082Q554.8625 79.50645 554.8625 78.75645Q554.8625 77.99082 554.3625 77.49082Q553.8625 76.99082 553.09686 76.99082Q552.34686 76.99082 551.8625 77.49082Q551.3781 77.9752 551.3781 78.70957ZM557.5031 74.6627Q557.5031 73.74082 557.95624 73.1002Q558.425 72.45957 559.3 72.45957Q560.1125 72.45957 560.64374 73.0377Q561.175 73.61582 561.175 74.7252Q561.175 75.81895 560.6281 76.4127Q560.09686 76.99082 559.3156 76.99082Q558.53436 76.99082 558.01874 76.4127Q557.5031 75.83457 557.5031 74.6627ZM559.33124 73.17832Q558.9406 73.17832 558.675 73.52207Q558.425 73.86582 558.425 74.77207Q558.425 75.6002 558.675 75.94395Q558.9406 76.27207 559.33124 76.27207Q559.7375 76.27207 559.9875 75.92832Q560.2531 75.58457 560.2531 74.69395Q560.2531 73.8502 559.9875 73.52207Q559.72186 73.17832 559.33124 73.17832ZM559.33124 81.50645L564.03436 72.45957L564.89374 72.45957L560.20624 81.50645L559.33124 81.50645ZM563.05 79.17832Q563.05 78.25645 563.5031 77.61582Q563.97186 76.9752 564.8625 76.9752Q565.675 76.9752 566.20624 77.55332Q566.7375 78.11582 566.7375 79.24082Q566.7375 80.33457 566.1906 80.92832Q565.65936 81.50645 564.8625 81.50645Q564.09686 81.50645 563.5656 80.92832Q563.05 80.3502 563.05 79.17832ZM564.89374 77.69395Q564.4875 77.69395 564.22186 78.0377Q563.97186 78.38145 563.97186 79.2877Q563.97186 80.1002 564.2375 80.44395Q564.5031 80.7877 564.89374 80.7877Q565.28436 80.7877 565.55 80.44395Q565.8156 80.1002 565.8156 79.19395Q565.8156 78.36582 565.55 78.0377Q565.28436 77.69395 564.89374 77.69395Z" fill-rule="nonzero"/><path stroke="#757575" stroke-width="1.0" stroke-linecap="butt" d="M567.8 68.69395L426.4 68.69395L343.21808 68.69395" fill-rule="nonzero"/><path fill="#9e9e9e" d="M345.21808 68.69395C345.21808 67.58938 344.32263 66.69395 343.21808 66.69395C342.1135 66.69395 341.21808 67.58938 341.21808 68.69395C341.21808 69.79852 342.1135 70.69395 343.21808 70.69395C344.32263 70.69395 345.21808 69.79852 345.21808 68.69395" fill-rule="nonzero"/><path fill="#757575" d="M523.7531 131.32666L523.7531 130.32666L527.3781 130.31104L527.3781 133.49854Q526.55 134.17041 525.65936 134.51416Q524.76874 134.84229 523.83124 134.84229Q522.5656 134.84229 521.51874 134.31104Q520.4875 133.76416 519.95624 132.74854Q519.4406 131.71729 519.4406 130.45166Q519.4406 129.18604 519.95624 128.10791Q520.4875 127.01416 521.47186 126.498535Q522.45624 125.967285 523.7375 125.967285Q524.675 125.967285 525.425 126.26416Q526.175 126.561035 526.59686 127.10791Q527.03436 127.63916 527.2531 128.51416L526.2375 128.79541Q526.03436 128.13916 525.7375 127.76416Q525.45624 127.38916 524.925 127.17041Q524.39374 126.936035 523.7531 126.936035Q522.97186 126.936035 522.39374 127.17041Q521.83124 127.404785 521.47186 127.79541Q521.1281 128.18604 520.9406 128.65479Q520.6125 129.45166 520.6125 130.37354Q520.6125 131.52979 521.0031 132.31104Q521.40936 133.07666 522.15936 133.45166Q522.90936 133.82666 523.76874 133.82666Q524.5031 133.82666 525.20624 133.54541Q525.90936 133.24854 526.26874 132.93604L526.26874 131.32666L523.7531 131.32666ZM532.84686 132.70166L533.9406 132.82666Q533.6906 133.77979 532.9875 134.31104Q532.28436 134.84229 531.20624 134.84229Q529.84686 134.84229 529.03436 133.99854Q528.2375 133.15479 528.2375 131.63916Q528.2375 130.07666 529.05 129.21729Q529.8625 128.34229 531.14374 128.34229Q532.39374 128.34229 533.175 129.18604Q533.97186 130.02979 533.97186 131.57666Q533.97186 131.67041 533.97186 131.85791L529.33124 131.85791Q529.39374 132.88916 529.90936 133.43604Q530.425 133.96729 531.20624 133.96729Q531.78436 133.96729 532.1906 133.67041Q532.6125 133.35791 532.84686 132.70166ZM529.39374 130.99854L532.8625 130.99854Q532.8 130.20166 532.47186 129.81104Q531.95624 129.20166 531.15936 129.20166Q530.425 129.20166 529.925 129.68604Q529.4406 130.17041 529.39374 130.99854ZM535.59686 134.70166L535.59686 128.48291L536.53436 128.48291L536.53436 129.35791Q537.22186 128.34229 538.51874 128.34229Q539.08124 128.34229 539.55 128.54541Q540.03436 128.74854 540.26874 129.07666Q540.5031 129.40479 540.59686 129.84229Q540.64374 130.13916 540.64374 130.87354L540.64374 134.70166L539.59686 134.70166L539.59686 130.92041Q539.59686 130.26416 539.47186 129.95166Q539.34686 129.63916 539.03436 129.45166Q538.72186 129.24854 538.3 129.24854Q537.6281 129.24854 537.1281 129.68604Q536.64374 130.10791 536.64374 131.29541L536.64374 134.70166L535.59686 134.70166ZM546.84686 132.70166L547.9406 132.82666Q547.6906 133.77979 546.9875 134.31104Q546.28436 134.84229 545.20624 134.84229Q543.84686 134.84229 543.03436 133.99854Q542.2375 133.15479 542.2375 131.63916Q542.2375 130.07666 543.05 129.21729Q543.8625 128.34229 545.14374 128.34229Q546.39374 128.34229 547.175 129.18604Q547.97186 130.02979 547.97186 131.57666Q547.97186 131.67041 547.97186 131.85791L543.33124 131.85791Q543.39374 132.88916 543.90936 133.43604Q544.425 133.96729 545.20624 133.96729Q545.78436 133.96729 546.1906 133.67041Q546.6125 133.35791 546.84686 132.70166ZM543.39374 130.99854L546.8625 130.99854Q546.8 130.20166 546.47186 129.81104Q545.95624 129.20166 545.15936 129.20166Q544.425 129.20166 543.925 129.68604Q543.4406 130.17041 543.39374 130.99854ZM551.89374 133.76416L552.05 134.68604Q551.59686 134.77979 551.2531 134.77979Q550.675 134.77979 550.3625 134.60791Q550.05 134.42041 549.90936 134.12354Q549.78436 133.82666 549.78436 132.87354L549.78436 129.29541L549.01874 129.29541L549.01874 128.48291L549.78436 128.48291L549.78436 126.936035L550.83124 126.311035L550.83124 128.48291L551.89374 128.48291L551.89374 129.29541L550.83124 129.29541L550.83124 132.93604Q550.83124 133.38916 550.8781 133.51416Q550.9406 133.63916 551.0656 133.71729Q551.1906 133.79541 551.425 133.79541Q551.6125 133.79541 551.89374 133.76416ZM552.59686 127.32666L552.59686 126.10791L553.65936 126.10791L553.65936 127.32666L552.59686 127.32666ZM552.59686 134.70166L552.59686 128.48291L553.65936 128.48291L553.65936 134.70166L552.59686 134.70166ZM559.65936 132.42041L560.6906 132.56104Q560.51874 133.62354 559.8156 134.23291Q559.1125 134.84229 558.09686 134.84229Q556.8156 134.84229 556.03436 134.01416Q555.26874 133.17041 555.26874 131.60791Q555.26874 130.60791 555.59686 129.85791Q555.9406 129.09229 556.6125 128.71729Q557.3 128.34229 558.1125 128.34229Q559.1125 128.34229 559.7531 128.85791Q560.40936 129.35791 560.59686 130.31104L559.5656 130.46729Q559.425 129.84229 559.05 129.52979Q558.675 129.20166 558.14374 129.20166Q557.34686 129.20166 556.84686 129.77979Q556.34686 130.34229 556.34686 131.57666Q556.34686 132.84229 556.83124 133.40479Q557.3156 133.96729 558.08124 133.96729Q558.70624 133.96729 559.1125 133.59229Q559.53436 133.21729 559.65936 132.42041ZM561.175 132.84229L562.20624 132.68604Q562.3 133.31104 562.6906 133.63916Q563.09686 133.96729 563.83124 133.96729Q564.55 133.96729 564.89374 133.68604Q565.2531 133.38916 565.2531 132.98291Q565.2531 132.62354 564.9406 132.42041Q564.72186 132.27979 563.8625 132.06104Q562.70624 131.76416 562.2531 131.56104Q561.8156 131.34229 561.58124 130.96729Q561.34686 130.59229 561.34686 130.12354Q561.34686 129.71729 561.53436 129.35791Q561.72186 128.99854 562.05 128.76416Q562.3 128.59229 562.72186 128.46729Q563.14374 128.34229 563.64374 128.34229Q564.3625 128.34229 564.90936 128.56104Q565.47186 128.76416 565.7375 129.12354Q566.0031 129.48291 566.09686 130.07666L565.0656 130.21729Q565.0031 129.74854 564.65936 129.48291Q564.33124 129.20166 563.70624 129.20166Q562.9875 129.20166 562.675 129.45166Q562.3625 129.68604 562.3625 130.01416Q562.3625 130.21729 562.4875 130.37354Q562.6281 130.54541 562.89374 130.65479Q563.05 130.71729 563.83124 130.92041Q564.95624 131.23291 565.39374 131.42041Q565.83124 131.60791 566.08124 131.96729Q566.33124 132.32666 566.33124 132.87354Q566.33124 133.40479 566.01874 133.87354Q565.72186 134.32666 565.14374 134.59229Q564.5656 134.84229 563.83124 134.84229Q562.6125 134.84229 561.97186 134.34229Q561.34686 133.82666 561.175 132.84229Z" fill-rule="nonzero"/><path fill="#9e9e9e" d="M537.26874 151.70166L536.22186 151.70166L536.22186 144.98291Q535.83124 145.34229 535.20624 145.71729Q534.59686 146.07666 534.1125 146.24854L534.1125 145.23291Q534.9875 144.81104 535.64374 144.23291Q536.3156 143.63916 536.59686 143.07666L537.26874 143.07666L537.26874 151.70166ZM544.26874 151.70166L543.22186 151.70166L543.22186 144.98291Q542.83124 145.34229 542.20624 145.71729Q541.59686 146.07666 541.1125 146.24854L541.1125 145.23291Q541.9875 144.81104 542.64374 144.23291Q543.3156 143.63916 543.59686 143.07666L544.26874 143.07666L544.26874 151.70166ZM547.89374 151.70166L547.89374 150.49854L549.09686 150.49854L549.09686 151.70166L547.89374 151.70166ZM550.3625 144.23291L550.3625 143.21729L555.925 143.21729L555.925 144.04541Q555.1125 144.92041 554.3 146.37354Q553.5031 147.81104 553.0656 149.34229Q552.7375 150.42041 552.65936 151.70166L551.5656 151.70166Q551.58124 150.68604 551.95624 149.24854Q552.34686 147.81104 553.05 146.48291Q553.76874 145.15479 554.58124 144.23291L550.3625 144.23291ZM557.5031 145.17041Q557.5031 144.24854 557.95624 143.60791Q558.425 142.96729 559.3 142.96729Q560.1125 142.96729 560.64374 143.54541Q561.175 144.12354 561.175 145.23291Q561.175 146.32666 560.6281 146.92041Q560.09686 147.49854 559.3156 147.49854Q558.53436 147.49854 558.01874 146.92041Q557.5031 146.34229 557.5031 145.17041ZM559.33124 143.68604Q558.9406 143.68604 558.675 144.02979Q558.425 144.37354 558.425 145.27979Q558.425 146.10791 558.675 146.45166Q558.9406 146.77979 559.33124 146.77979Q559.7375 146.77979 559.9875 146.43604Q560.2531 146.09229 560.2531 145.20166Q560.2531 144.35791 559.9875 144.02979Q559.72186 143.68604 559.33124 143.68604ZM559.33124 152.01416L564.03436 142.96729L564.89374 142.96729L560.20624 152.01416L559.33124 152.01416ZM563.05 149.68604Q563.05 148.76416 563.5031 148.12354Q563.97186 147.48291 564.8625 147.48291Q565.675 147.48291 566.20624 148.06104Q566.7375 148.62354 566.7375 149.74854Q566.7375 150.84229 566.1906 151.43604Q565.65936 152.01416 564.8625 152.01416Q564.09686 152.01416 563.5656 151.43604Q563.05 150.85791 563.05 149.68604ZM564.89374 148.20166Q564.4875 148.20166 564.22186 148.54541Q563.97186 148.88916 563.97186 149.79541Q563.97186 150.60791 564.2375 150.95166Q564.5031 151.29541 564.89374 151.29541Q565.28436 151.29541 565.55 150.95166Q565.8156 150.60791 565.8156 149.70166Q565.8156 148.87354 565.55 148.54541Q565.28436 148.20166 564.89374 148.20166Z" fill-rule="nonzero"/><path stroke="#757575" stroke-width="1.0" stroke-linecap="butt" d="M567.8 139.20166L426.4 139.20166L407.16602 139.20166" fill-rule="nonzero"/><path fill="#9e9e9e" d="M409.16602 139.20166C409.16602 138.09709 408.2706 137.20166 407.16602 137.20166C406.06146 137.20166 405.16602 138.09709 405.16602 139.20166C405.16602 140.30623 406.06146 141.20166 407.16602 141.20166C408.2706 141.20166 409.16602 140.30623 409.16602 139.20166" fill-rule="nonzero"/><path fill="#757575" d="M499.7531 228.66147L499.7531 227.66147L503.3781 227.64584L503.3781 230.83334Q502.55 231.50522 501.65936 231.84897Q500.76874 232.1771 499.83124 232.1771Q498.5656 232.1771 497.51874 231.64584Q496.4875 231.09897 495.95624 230.08334Q495.4406 229.0521 495.4406 227.78647Q495.4406 226.52084 495.95624 225.44272Q496.4875 224.34897 497.47186 223.83334Q498.45624 223.3021 499.7375 223.3021Q500.675 223.3021 501.425 223.59897Q502.175 223.89584 502.59686 224.44272Q503.03436 224.97397 503.2531 225.84897L502.2375 226.13022Q502.03436 225.47397 501.7375 225.09897Q501.45624 224.72397 500.925 224.50522Q500.39374 224.27084 499.7531 224.27084Q498.97186 224.27084 498.39374 224.50522Q497.83124 224.7396 497.47186 225.13022Q497.1281 225.52084 496.9406 225.9896Q496.6125 226.78647 496.6125 227.70834Q496.6125 228.8646 497.0031 229.64584Q497.40936 230.41147 498.15936 230.78647Q498.90936 231.16147 499.76874 231.16147Q500.5031 231.16147 501.20624 230.88022Q501.90936 230.58334 502.26874 230.27084L502.26874 228.66147L499.7531 228.66147ZM508.84686 230.03647L509.9406 230.16147Q509.6906 231.1146 508.9875 231.64584Q508.28436 232.1771 507.20624 232.1771Q505.84686 232.1771 505.03436 231.33334Q504.2375 230.4896 504.2375 228.97397Q504.2375 227.41147 505.05 226.5521Q505.8625 225.6771 507.14374 225.6771Q508.39374 225.6771 509.175 226.52084Q509.97186 227.3646 509.97186 228.91147Q509.97186 229.00522 509.97186 229.19272L505.33124 229.19272Q505.39374 230.22397 505.90936 230.77084Q506.425 231.3021 507.20624 231.3021Q507.78436 231.3021 508.1906 231.00522Q508.6125 230.69272 508.84686 230.03647ZM505.39374 228.33334L508.8625 228.33334Q508.8 227.53647 508.47186 227.14584Q507.95624 226.53647 507.15936 226.53647Q506.425 226.53647 505.925 227.02084Q505.4406 227.50522 505.39374 228.33334ZM511.59686 232.03647L511.59686 225.81772L512.53436 225.81772L512.53436 226.69272Q513.22186 225.6771 514.51874 225.6771Q515.08124 225.6771 515.55 225.88022Q516.03436 226.08334 516.26874 226.41147Q516.5031 226.7396 516.59686 227.1771Q516.64374 227.47397 516.64374 228.20834L516.64374 232.03647L515.59686 232.03647L515.59686 228.25522Q515.59686 227.59897 515.47186 227.28647Q515.34686 226.97397 515.03436 226.78647Q514.72186 226.58334 514.3 226.58334Q513.6281 226.58334 513.1281 227.02084Q512.64374 227.44272 512.64374 228.63022L512.64374 232.03647L511.59686 232.03647ZM522.84686 230.03647L523.9406 230.16147Q523.6906 231.1146 522.9875 231.64584Q522.28436 232.1771 521.20624 232.1771Q519.84686 232.1771 519.03436 231.33334Q518.2375 230.4896 518.2375 228.97397Q518.2375 227.41147 519.05 226.5521Q519.8625 225.6771 521.14374 225.6771Q522.39374 225.6771 523.175 226.52084Q523.97186 227.3646 523.97186 228.91147Q523.97186 229.00522 523.97186 229.19272L519.33124 229.19272Q519.39374 230.22397 519.90936 230.77084Q520.425 231.3021 521.20624 231.3021Q521.78436 231.3021 522.1906 231.00522Q522.6125 230.69272 522.84686 230.03647ZM519.39374 228.33334L522.8625 228.33334Q522.8 227.53647 522.47186 227.14584Q521.95624 226.53647 521.15936 226.53647Q520.425 226.53647 519.925 227.02084Q519.4406 227.50522 519.39374 228.33334ZM527.89374 231.09897L528.05 232.02084Q527.59686 232.1146 527.2531 232.1146Q526.675 232.1146 526.3625 231.94272Q526.05 231.75522 525.90936 231.45834Q525.78436 231.16147 525.78436 230.20834L525.78436 226.63022L525.01874 226.63022L525.01874 225.81772L525.78436 225.81772L525.78436 224.27084L526.83124 223.64584L526.83124 225.81772L527.89374 225.81772L527.89374 226.63022L526.83124 226.63022L526.83124 230.27084Q526.83124 230.72397 526.8781 230.84897Q526.9406 230.97397 527.0656 231.0521Q527.1906 231.13022 527.425 231.13022Q527.6125 231.13022 527.89374 231.09897ZM528.59686 224.66147L528.59686 223.44272L529.65936 223.44272L529.65936 224.66147L528.59686 224.66147ZM528.59686 232.03647L528.59686 225.81772L529.65936 225.81772L529.65936 232.03647L528.59686 232.03647ZM535.65936 229.75522L536.6906 229.89584Q536.51874 230.95834 535.8156 231.56772Q535.1125 232.1771 534.09686 232.1771Q532.8156 232.1771 532.03436 231.34897Q531.26874 230.50522 531.26874 228.94272Q531.26874 227.94272 531.59686 227.19272Q531.9406 226.4271 532.6125 226.0521Q533.3 225.6771 534.1125 225.6771Q535.1125 225.6771 535.7531 226.19272Q536.40936 226.69272 536.59686 227.64584L535.5656 227.8021Q535.425 227.1771 535.05 226.8646Q534.675 226.53647 534.14374 226.53647Q533.34686 226.53647 532.84686 227.1146Q532.34686 227.6771 532.34686 228.91147Q532.34686 230.1771 532.83124 230.7396Q533.3156 231.3021 534.08124 231.3021Q534.70624 231.3021 535.1125 230.9271Q535.53436 230.5521 535.65936 229.75522ZM537.175 230.1771L538.20624 230.02084Q538.3 230.64584 538.6906 230.97397Q539.09686 231.3021 539.83124 231.3021Q540.55 231.3021 540.89374 231.02084Q541.2531 230.72397 541.2531 230.31772Q541.2531 229.95834 540.9406 229.75522Q540.72186 229.6146 539.8625 229.39584Q538.70624 229.09897 538.2531 228.89584Q537.8156 228.6771 537.58124 228.3021Q537.34686 227.9271 537.34686 227.45834Q537.34686 227.0521 537.53436 226.69272Q537.72186 226.33334 538.05 226.09897Q538.3 225.9271 538.72186 225.8021Q539.14374 225.6771 539.64374 225.6771Q540.3625 225.6771 540.90936 225.89584Q541.47186 226.09897 541.7375 226.45834Q542.0031 226.81772 542.09686 227.41147L541.0656 227.5521Q541.0031 227.08334 540.65936 226.81772Q540.33124 226.53647 539.70624 226.53647Q538.9875 226.53647 538.675 226.78647Q538.3625 227.02084 538.3625 227.34897Q538.3625 227.5521 538.4875 227.70834Q538.6281 227.88022 538.89374 227.9896Q539.05 228.0521 539.83124 228.25522Q540.95624 228.56772 541.39374 228.75522Q541.83124 228.94272 542.08124 229.3021Q542.33124 229.66147 542.33124 230.20834Q542.33124 230.7396 542.01874 231.20834Q541.72186 231.66147 541.14374 231.9271Q540.5656 232.1771 539.83124 232.1771Q538.6125 232.1771 537.97186 231.6771Q537.34686 231.16147 537.175 230.1771ZM547.675 232.03647L547.675 223.44272L548.8156 223.44272L548.8156 231.02084L553.05 231.02084L553.05 232.03647L547.675 232.03647ZM558.65936 231.27084Q558.0656 231.77084 557.51874 231.97397Q556.9875 232.1771 556.3625 232.1771Q555.33124 232.1771 554.78436 231.6771Q554.2375 231.1771 554.2375 230.39584Q554.2375 229.94272 554.4406 229.56772Q554.64374 229.1771 554.9875 228.95834Q555.33124 228.72397 555.7531 228.6146Q556.05 228.52084 556.6906 228.44272Q557.95624 228.3021 558.5656 228.08334Q558.5656 227.8646 558.5656 227.81772Q558.5656 227.16147 558.26874 226.89584Q557.8625 226.5521 557.0656 226.5521Q556.33124 226.5521 555.97186 226.81772Q555.6125 227.06772 555.4406 227.72397L554.40936 227.58334Q554.55 226.9271 554.8781 226.52084Q555.20624 226.1146 555.8156 225.89584Q556.425 225.6771 557.22186 225.6771Q558.01874 225.6771 558.51874 225.8646Q559.01874 226.0521 559.2531 226.33334Q559.4875 226.6146 559.58124 227.0521Q559.6281 227.31772 559.6281 228.02084L559.6281 229.4271Q559.6281 230.89584 559.6906 231.28647Q559.76874 231.6771 559.97186 232.03647L558.8625 232.03647Q558.70624 231.70834 558.65936 231.27084ZM558.5656 228.91147Q557.9875 229.14584 556.84686 229.31772Q556.1906 229.41147 555.925 229.53647Q555.65936 229.64584 555.5031 229.8646Q555.3625 230.08334 555.3625 230.3646Q555.3625 230.78647 555.675 231.06772Q556.0031 231.34897 556.6125 231.34897Q557.22186 231.34897 557.6906 231.08334Q558.175 230.81772 558.39374 230.34897Q558.5656 229.9896 558.5656 229.3021L558.5656 228.91147ZM562.5656 232.03647L561.58124 232.03647L561.58124 223.44272L562.64374 223.44272L562.64374 226.50522Q563.3156 225.6771 564.34686 225.6771Q564.925 225.6771 565.425 225.91147Q565.9406 226.13022 566.26874 226.5521Q566.6125 226.97397 566.8 227.56772Q566.9875 228.16147 566.9875 228.83334Q566.9875 230.4271 566.1906 231.3021Q565.39374 232.1771 564.3 232.1771Q563.1906 232.1771 562.5656 231.25522L562.5656 232.03647ZM562.55 228.88022Q562.55 229.9896 562.8625 230.4896Q563.3625 231.3021 564.20624 231.3021Q564.89374 231.3021 565.39374 230.70834Q565.90936 230.1146 565.90936 228.91147Q565.90936 227.69272 565.425 227.1146Q564.9406 226.53647 564.2531 226.53647Q563.5656 226.53647 563.05 227.14584Q562.55 227.7396 562.55 228.88022Z" fill-rule="nonzero"/><path fill="#9e9e9e" d="M537.26874 249.03647L536.22186 249.03647L536.22186 242.31772Q535.83124 242.6771 535.20624 243.0521Q534.59686 243.41147 534.1125 243.58334L534.1125 242.56772Q534.9875 242.14584 535.64374 241.56772Q536.3156 240.97397 536.59686 240.41147L537.26874 240.41147L537.26874 249.03647ZM543.675 249.03647L543.675 246.97397L539.95624 246.97397L539.95624 246.00522L543.8781 240.44272L544.7375 240.44272L544.7375 246.00522L545.89374 246.00522L545.89374 246.97397L544.7375 246.97397L544.7375 249.03647L543.675 249.03647ZM543.675 246.00522L543.675 242.14584L540.9875 246.00522L543.675 246.00522ZM547.89374 249.03647L547.89374 247.83334L549.09686 247.83334L549.09686 249.03647L547.89374 249.03647ZM550.3 246.78647L551.40936 246.69272Q551.53436 247.50522 551.97186 247.91147Q552.425 248.31772 553.0656 248.31772Q553.8156 248.31772 554.34686 247.7396Q554.8781 247.16147 554.8781 246.22397Q554.8781 245.31772 554.3625 244.8021Q553.8625 244.27084 553.03436 244.27084Q552.53436 244.27084 552.1125 244.50522Q551.70624 244.7396 551.47186 245.09897L550.4875 244.97397L551.3156 240.56772L555.59686 240.56772L555.59686 241.56772L552.15936 241.56772L551.70624 243.88022Q552.47186 243.33334 553.3156 243.33334Q554.4406 243.33334 555.20624 244.1146Q555.9875 244.89584 555.9875 246.13022Q555.9875 247.28647 555.3156 248.14584Q554.4875 249.1771 553.0656 249.1771Q551.89374 249.1771 551.14374 248.52084Q550.40936 247.8646 550.3 246.78647ZM557.5031 242.50522Q557.5031 241.58334 557.95624 240.94272Q558.425 240.3021 559.3 240.3021Q560.1125 240.3021 560.64374 240.88022Q561.175 241.45834 561.175 242.56772Q561.175 243.66147 560.6281 244.25522Q560.09686 244.83334 559.3156 244.83334Q558.53436 244.83334 558.01874 244.25522Q557.5031 243.6771 557.5031 242.50522ZM559.33124 241.02084Q558.9406 241.02084 558.675 241.3646Q558.425 241.70834 558.425 242.6146Q558.425 243.44272 558.675 243.78647Q558.9406 244.1146 559.33124 244.1146Q559.7375 244.1146 559.9875 243.77084Q560.2531 243.4271 560.2531 242.53647Q560.2531 241.69272 559.9875 241.3646Q559.72186 241.02084 559.33124 241.02084ZM559.33124 249.34897L564.03436 240.3021L564.89374 240.3021L560.20624 249.34897L559.33124 249.34897ZM563.05 247.02084Q563.05 246.09897 563.5031 245.45834Q563.97186 244.81772 564.8625 244.81772Q565.675 244.81772 566.20624 245.39584Q566.7375 245.95834 566.7375 247.08334Q566.7375 248.1771 566.1906 248.77084Q565.65936 249.34897 564.8625 249.34897Q564.09686 249.34897 563.5656 248.77084Q563.05 248.19272 563.05 247.02084ZM564.89374 245.53647Q564.4875 245.53647 564.22186 245.88022Q563.97186 246.22397 563.97186 247.13022Q563.97186 247.94272 564.2375 248.28647Q564.5031 248.63022 564.89374 248.63022Q565.28436 248.63022 565.55 248.28647Q565.8156 247.94272 565.8156 247.03647Q565.8156 246.20834 565.55 245.88022Q565.28436 245.53647 564.89374 245.53647Z" fill-rule="nonzero"/><path stroke="#757575" stroke-width="1.0" stroke-linecap="butt" d="M567.8 236.53647L426.4 236.53647L399.7708 236.53647" fill-rule="nonzero"/><path fill="#9e9e9e" d="M401.7708 236.53647C401.7708 235.43188 400.87537 234.53647 399.7708 234.53647C398.66623 234.53647 397.7708 235.43188 397.7708 236.53647C397.7708 237.64104 398.66623 238.53647 399.7708 238.53647C400.87537 238.53647 401.7708 237.64104 401.7708 236.53647" fill-rule="nonzero"/><path fill="#757575" d="M27.965626 30.184376L29.85625 30.653126Q29.2625 32.996876 27.715626 34.23125Q26.16875 35.45 23.91875 35.45Q21.60625 35.45 20.153126 34.5125Q18.715626 33.559376 17.95 31.778126Q17.2 29.98125 17.2 27.934376Q17.2 25.7 18.04375 24.04375Q18.903126 22.371876 20.48125 21.5125Q22.059376 20.6375 23.95 20.6375Q26.10625 20.6375 27.559376 21.73125Q29.028126 22.825 29.60625 24.809376L27.746876 25.246876Q27.246876 23.684376 26.29375 22.98125Q25.35625 22.2625 23.91875 22.2625Q22.2625 22.2625 21.153126 23.059376Q20.04375 23.840626 19.590626 25.184376Q19.153126 26.5125 19.153126 27.91875Q19.153126 29.746876 19.684376 31.121876Q20.215626 32.48125 21.340626 33.153126Q22.465626 33.825 23.7625 33.825Q25.35625 33.825 26.465626 32.903126Q27.575 31.98125 27.965626 30.184376ZM31.48125 35.2L31.48125 20.8875L33.23125 20.8875L33.23125 35.2L31.48125 35.2ZM42.29375 33.91875Q41.309376 34.746876 40.403126 35.090626Q39.496876 35.434376 38.465626 35.434376Q36.7625 35.434376 35.840626 34.60625Q34.91875 33.7625 34.91875 32.465626Q34.91875 31.7 35.2625 31.075Q35.621876 30.45 36.184376 30.075Q36.746876 29.684376 37.45 29.48125Q37.965626 29.35625 39.0125 29.215626Q41.1375 28.965626 42.1375 28.621876Q42.153126 28.2625 42.153126 28.153126Q42.153126 27.090626 41.653126 26.6375Q40.98125 26.04375 39.653126 26.04375Q38.403126 26.04375 37.809376 26.48125Q37.23125 26.91875 36.95 28.028126L35.23125 27.79375Q35.465626 26.684376 35.996876 26.0125Q36.528126 25.325 37.54375 24.965626Q38.559376 24.590626 39.903126 24.590626Q41.23125 24.590626 42.059376 24.903126Q42.8875 25.215626 43.278126 25.7Q43.66875 26.16875 43.825 26.8875Q43.91875 27.340626 43.91875 28.5125L43.91875 30.85625Q43.91875 33.309376 44.028126 33.965626Q44.1375 34.60625 44.48125 35.2L42.6375 35.2Q42.371876 34.653126 42.29375 33.91875ZM42.1375 29.996876Q41.184376 30.3875 39.2625 30.653126Q38.184376 30.809376 37.73125 31.0125Q37.29375 31.2 37.04375 31.575Q36.79375 31.95 36.79375 32.41875Q36.79375 33.121876 37.325 33.590626Q37.85625 34.059376 38.8875 34.059376Q39.903126 34.059376 40.684376 33.621876Q41.48125 33.16875 41.85625 32.403126Q42.1375 31.79375 42.1375 30.6375L42.1375 29.996876ZM45.809376 32.10625L47.559376 31.825Q47.7 32.871876 48.371876 33.434376Q49.04375 33.98125 50.246876 33.98125Q51.45 33.98125 52.028126 33.496876Q52.621876 32.996876 52.621876 32.340626Q52.621876 31.746876 52.10625 31.403126Q51.746876 31.16875 50.309376 30.809376Q48.371876 30.309376 47.621876 29.965626Q46.8875 29.60625 46.496876 28.98125Q46.10625 28.340626 46.10625 27.575Q46.10625 26.8875 46.41875 26.29375Q46.746876 25.7 47.29375 25.309376Q47.7 25.0125 48.403126 24.809376Q49.121876 24.590626 49.934376 24.590626Q51.153126 24.590626 52.075 24.95Q52.996876 25.29375 53.434376 25.903126Q53.871876 26.496876 54.04375 27.496876L52.325 27.73125Q52.2 26.934376 51.6375 26.496876Q51.075 26.04375 50.059376 26.04375Q48.840626 26.04375 48.325 26.45Q47.809376 26.840626 47.809376 27.371876Q47.809376 27.715626 48.028126 27.996876Q48.23125 28.278126 48.7 28.465626Q48.965626 28.559376 50.246876 28.903126Q52.121876 29.403126 52.85625 29.73125Q53.590626 30.04375 54.0125 30.653126Q54.434376 31.246876 54.434376 32.153126Q54.434376 33.028126 53.91875 33.809376Q53.403126 34.590626 52.434376 35.0125Q51.465626 35.434376 50.246876 35.434376Q48.23125 35.434376 47.16875 34.590626Q46.10625 33.746876 45.809376 32.10625ZM55.809376 32.10625L57.559376 31.825Q57.7 32.871876 58.371876 33.434376Q59.04375 33.98125 60.246876 33.98125Q61.45 33.98125 62.028126 33.496876Q62.621876 32.996876 62.621876 32.340626Q62.621876 31.746876 62.10625 31.403126Q61.746876 31.16875 60.309376 30.809376Q58.371876 30.309376 57.621876 29.965626Q56.8875 29.60625 56.496876 28.98125Q56.10625 28.340626 56.10625 27.575Q56.10625 26.8875 56.41875 26.29375Q56.746876 25.7 57.29375 25.309376Q57.7 25.0125 58.403126 24.809376Q59.121876 24.590626 59.934376 24.590626Q61.153126 24.590626 62.075 24.95Q62.996876 25.29375 63.434376 25.903126Q63.871876 26.496876 64.04375 27.496876L62.325 27.73125Q62.2 26.934376 61.6375 26.496876Q61.075 26.04375 60.059376 26.04375Q58.840626 26.04375 58.325 26.45Q57.809376 26.840626 57.809376 27.371876Q57.809376 27.715626 58.028126 27.996876Q58.23125 28.278126 58.7 28.465626Q58.965626 28.559376 60.246876 28.903126Q62.121876 29.403126 62.85625 29.73125Q63.590626 30.04375 64.0125 30.653126Q64.43437 31.246876 64.43437 32.153126Q64.43437 33.028126 63.91875 33.809376Q63.403126 34.590626 62.434376 35.0125Q61.465626 35.434376 60.246876 35.434376Q58.23125 35.434376 57.16875 34.590626Q56.10625 33.746876 55.809376 32.10625ZM71.16875 35.2L76.66875 20.8875L78.71562 20.8875L84.575 35.2L82.41875 35.2L80.74687 30.85625L74.7625 30.85625L73.18437 35.2L71.16875 35.2ZM75.30937 29.325L80.15312 29.325L78.66875 25.35625Q77.98125 23.54375 77.65312 22.3875Q77.37187 23.7625 76.87187 25.121876L75.30937 29.325ZM84.80937 32.10625L86.55937 31.825Q86.7 32.871876 87.37187 33.434376Q88.04375 33.98125 89.24687 33.98125Q90.45 33.98125 91.02812 33.496876Q91.62187 32.996876 91.62187 32.340626Q91.62187 31.746876 91.10625 31.403126Q90.74687 31.16875 89.30937 30.809376Q87.37187 30.309376 86.62187 29.965626Q85.8875 29.60625 85.49687 28.98125Q85.10625 28.340626 85.10625 27.575Q85.10625 26.8875 85.41875 26.29375Q85.74687 25.7 86.29375 25.309376Q86.7 25.0125 87.40312 24.809376Q88.12187 24.590626 88.93437 24.590626Q90.15312 24.590626 91.075 24.95Q91.99687 25.29375 92.43437 25.903126Q92.87187 26.496876 93.04375 27.496876L91.325 27.73125Q91.2 26.934376 90.6375 26.496876Q90.075 26.04375 89.05937 26.04375Q87.84062 26.04375 87.325 26.45Q86.80937 26.840626 86.80937 27.371876Q86.80937 27.715626 87.02812 27.996876Q87.23125 28.278126 87.7 28.465626Q87.96562 28.559376 89.24687 28.903126Q91.12187 29.403126 91.85625 29.73125Q92.59062 30.04375 93.0125 30.653126Q93.43437 31.246876 93.43437 32.153126Q93.43437 33.028126 92.91875 33.809376Q92.40312 34.590626 91.43437 35.0125Q90.46562 35.434376 89.24687 35.434376Q87.23125 35.434376 86.16875 34.590626Q85.10625 33.746876 84.80937 32.10625ZM94.80937 32.10625L96.55937 31.825Q96.7 32.871876 97.37187 33.434376Q98.04375 33.98125 99.24687 33.98125Q100.45 33.98125 101.02812 33.496876Q101.62187 32.996876 101.62187 32.340626Q101.62187 31.746876 101.10625 31.403126Q100.74687 31.16875 99.30937 30.809376Q97.37187 30.309376 96.62187 29.965626Q95.8875 29.60625 95.49687 28.98125Q95.10625 28.340626 95.10625 27.575Q95.10625 26.8875 95.41875 26.29375Q95.74687 25.7 96.29375 25.309376Q96.7 25.0125 97.40312 24.809376Q98.12187 24.590626 98.93437 24.590626Q100.15312 24.590626 101.075 24.95Q101.99687 25.29375 102.43437 25.903126Q102.87187 26.496876 103.04375 27.496876L101.325 27.73125Q101.2 26.934376 100.6375 26.496876Q100.075 26.04375 99.05937 26.04375Q97.84062 26.04375 97.325 26.45Q96.80937 26.840626 96.80937 27.371876Q96.80937 27.715626 97.02812 27.996876Q97.23125 28.278126 97.7 28.465626Q97.96562 28.559376 99.24687 28.903126Q101.12187 29.403126 101.85625 29.73125Q102.59062 30.04375 103.0125 30.653126Q103.43437 31.246876 103.43437 32.153126Q103.43437 33.028126 102.91875 33.809376Q102.40312 34.590626 101.43437 35.0125Q100.46562 35.434376 99.24687 35.434376Q97.23125 35.434376 96.16875 34.590626Q95.10625 33.746876 94.80937 32.10625ZM105.52812 22.903126L105.52812 20.8875L107.29375 20.8875L107.29375 22.903126L105.52812 22.903126ZM105.52812 35.2L105.52812 24.825L107.29375 24.825L107.29375 35.2L105.52812 35.2ZM109.2 36.059376L110.90312 36.309376Q111.0125 37.10625 111.49687 37.465626Q112.15312 37.95 113.29375 37.95Q114.5125 37.95 115.16875 37.465626Q115.84062 36.98125 116.075 36.10625Q116.21562 35.559376 116.2 33.840626Q115.04375 35.2 113.325 35.2Q111.18437 35.2 110.0125 33.653126Q108.84062 32.10625 108.84062 29.95Q108.84062 28.465626 109.37187 27.215626Q109.91875 25.965626 110.93437 25.278126Q111.96562 24.590626 113.34062 24.590626Q115.16875 24.590626 116.37187 26.075L116.37187 24.825L117.98125 24.825L117.98125 33.79375Q117.98125 36.215626 117.48125 37.215626Q116.99687 38.23125 115.91875 38.809376Q114.85625 39.403126 113.29375 39.403126Q111.45 39.403126 110.29375 38.575Q109.15312 37.746876 109.2 36.059376ZM110.65312 29.825Q110.65312 31.871876 111.46562 32.809376Q112.27812 33.746876 113.49687 33.746876Q114.7 33.746876 115.5125 32.809376Q116.34062 31.871876 116.34062 29.8875Q116.34062 27.98125 115.49687 27.0125Q114.65312 26.04375 113.46562 26.04375Q112.29375 26.04375 111.46562 26.996876Q110.65312 27.95 110.65312 29.825ZM120.5125 35.2L120.5125 24.825L122.10625 24.825L122.10625 26.309376Q123.24687 24.590626 125.40312 24.590626Q126.34062 24.590626 127.12187 24.934376Q127.91875 25.2625 128.30937 25.809376Q128.7 26.35625 128.85625 27.10625Q128.95 27.60625 128.95 28.825L128.95 35.2L127.18437 35.2L127.18437 28.8875Q127.18437 27.809376 126.98125 27.278126Q126.77812 26.746876 126.24687 26.434376Q125.73125 26.121876 125.02812 26.121876Q123.90312 26.121876 123.09062 26.840626Q122.27812 27.54375 122.27812 29.528126L122.27812 35.2L120.5125 35.2ZM130.5125 35.2L130.5125 24.825L132.09062 24.825L132.09062 26.278126Q132.575 25.528126 133.3875 25.059376Q134.2 24.590626 135.23125 24.590626Q136.3875 24.590626 137.12187 25.075Q137.85625 25.54375 138.16875 26.403126Q139.40312 24.590626 141.37187 24.590626Q142.91875 24.590626 143.74687 25.45Q144.575 26.309376 144.575 28.075L144.575 35.2L142.825 35.2L142.825 28.66875Q142.825 27.60625 142.65312 27.153126Q142.48125 26.684376 142.02812 26.403126Q141.59062 26.121876 140.98125 26.121876Q139.8875 26.121876 139.15312 26.85625Q138.43437 27.575 138.43437 29.16875L138.43437 35.2L136.68437 35.2L136.68437 28.465626Q136.68437 27.29375 136.24687 26.715626Q135.825 26.121876 134.84062 26.121876Q134.10625 26.121876 133.46562 26.5125Q132.84062 26.903126 132.55937 27.653126Q132.27812 28.403126 132.27812 29.825L132.27812 35.2L130.5125 35.2ZM153.62187 31.85625L155.43437 32.090626Q155.0125 33.66875 153.84062 34.559376Q152.68437 35.434376 150.87187 35.434376Q148.60625 35.434376 147.2625 34.04375Q145.93437 32.6375 145.93437 30.10625Q145.93437 27.48125 147.27812 26.04375Q148.62187 24.590626 150.77812 24.590626Q152.85625 24.590626 154.16875 26.0125Q155.49687 27.41875 155.49687 29.996876Q155.49687 30.153126 155.48125 30.465626L147.74687 30.465626Q147.84062 32.16875 148.71562 33.075Q149.59062 33.98125 150.8875 33.98125Q151.85625 33.98125 152.52812 33.48125Q153.21562 32.965626 153.62187 31.85625ZM147.84062 29.0125L153.6375 29.0125Q153.52812 27.715626 152.98125 27.059376Q152.1375 26.04375 150.79375 26.04375Q149.59062 26.04375 148.7625 26.85625Q147.93437 27.653126 147.84062 29.0125ZM157.5125 35.2L157.5125 24.825L159.10625 24.825L159.10625 26.309376Q160.24687 24.590626 162.40312 24.590626Q163.34062 24.590626 164.12187 24.934376Q164.91875 25.2625 165.30937 25.809376Q165.7 26.35625 165.85625 27.10625Q165.95 27.60625 165.95 28.825L165.95 35.2L164.18437 35.2L164.18437 28.8875Q164.18437 27.809376 163.98125 27.278126Q163.77812 26.746876 163.24687 26.434376Q162.73125 26.121876 162.02812 26.121876Q160.90312 26.121876 160.09062 26.840626Q159.27812 27.54375 159.27812 29.528126L159.27812 35.2L157.5125 35.2ZM171.35625 33.621876L171.60625 35.184376Q170.87187 35.340626 170.27812 35.340626Q169.325 35.340626 168.79375 35.04375Q168.27812 34.73125 168.05937 34.246876Q167.84062 33.746876 167.84062 32.16875L167.84062 26.2L166.55937 26.2L166.55937 24.825L167.84062 24.825L167.84062 22.2625L169.59062 21.2L169.59062 24.825L171.35625 24.825L171.35625 26.2L169.59062 26.2L169.59062 32.2625Q169.59062 33.0125 169.68437 33.23125Q169.77812 33.434376 169.98125 33.575Q170.2 33.7 170.59062 33.7Q170.87187 33.7 171.35625 33.621876ZM179.74687 35.2L179.74687 20.8875L184.66875 20.8875Q186.34062 20.8875 187.23125 21.090626Q188.45 21.371876 189.325 22.10625Q190.45 23.075 191.0125 24.559376Q191.575 26.04375 191.575 27.965626Q191.575 29.590626 191.2 30.85625Q190.825 32.10625 190.21562 32.934376Q189.62187 33.7625 188.91875 34.246876Q188.21562 34.715626 187.21562 34.965626Q186.21562 35.2 184.90312 35.2L179.74687 35.2ZM181.6375 33.5125L184.7 33.5125Q186.10625 33.5125 186.90312 33.246876Q187.71562 32.98125 188.2 32.496876Q188.87187 31.825 189.24687 30.7Q189.62187 29.559376 189.62187 27.934376Q189.62187 25.684376 188.8875 24.48125Q188.15312 23.278126 187.09062 22.871876Q186.34062 22.575 184.65312 22.575L181.6375 22.575L181.6375 33.5125ZM193.52812 22.903126L193.52812 20.8875L195.29375 20.8875L195.29375 22.903126L193.52812 22.903126ZM193.52812 35.2L193.52812 24.825L195.29375 24.825L195.29375 35.2L193.52812 35.2ZM196.80937 32.10625L198.55937 31.825Q198.7 32.871876 199.37187 33.434376Q200.04375 33.98125 201.24687 33.98125Q202.45 33.98125 203.02812 33.496876Q203.62187 32.996876 203.62187 32.340626Q203.62187 31.746876 203.10625 31.403126Q202.74687 31.16875 201.30937 30.809376Q199.37187 30.309376 198.62187 29.965626Q197.8875 29.60625 197.49687 28.98125Q197.10625 28.340626 197.10625 27.575Q197.10625 26.8875 197.41875 26.29375Q197.74687 25.7 198.29375 25.309376Q198.7 25.0125 199.40312 24.809376Q200.12187 24.590626 200.93437 24.590626Q202.15312 24.590626 203.075 24.95Q203.99687 25.29375 204.43437 25.903126Q204.87187 26.496876 205.04375 27.496876L203.325 27.73125Q203.2 26.934376 202.6375 26.496876Q202.075 26.04375 201.05937 26.04375Q199.84062 26.04375 199.325 26.45Q198.80937 26.840626 198.80937 27.371876Q198.80937 27.715626 199.02812 27.996876Q199.23125 28.278126 199.7 28.465626Q199.96562 28.559376 201.24687 28.903126Q203.12187 29.403126 203.85625 29.73125Q204.59062 30.04375 205.0125 30.653126Q205.43437 31.246876 205.43437 32.153126Q205.43437 33.028126 204.91875 33.809376Q204.40312 34.590626 203.43437 35.0125Q202.46562 35.434376 201.24687 35.434376Q199.23125 35.434376 198.16875 34.590626Q197.10625 33.746876 196.80937 32.10625ZM211.35625 33.621876L211.60625 35.184376Q210.87187 35.340626 210.27812 35.340626Q209.325 35.340626 208.79375 35.04375Q208.27812 34.73125 208.05937 34.246876Q207.84062 33.746876 207.84062 32.16875L207.84062 26.2L206.55937 26.2L206.55937 24.825L207.84062 24.825L207.84062 22.2625L209.59062 21.2L209.59062 24.825L211.35625 24.825L211.35625 26.2L209.59062 26.2L209.59062 32.2625Q209.59062 33.0125 209.68437 33.23125Q209.77812 33.434376 209.98125 33.575Q210.2 33.7 210.59062 33.7Q210.87187 33.7 211.35625 33.621876ZM213.49687 35.2L213.49687 24.825L215.075 24.825L215.075 26.403126Q215.68437 25.29375 216.2 24.95Q216.71562 24.590626 217.325 24.590626Q218.21562 24.590626 219.1375 25.153126L218.52812 26.79375Q217.8875 26.403126 217.24687 26.403126Q216.66875 26.403126 216.2 26.7625Q215.74687 27.10625 215.54375 27.715626Q215.2625 28.653126 215.2625 29.7625L215.2625 35.2L213.49687 35.2ZM220.52812 22.903126L220.52812 20.8875L222.29375 20.8875L222.29375 22.903126L220.52812 22.903126ZM220.52812 35.2L220.52812 24.825L222.29375 24.825L222.29375 35.2L220.52812 35.2ZM226.1375 35.2L224.5125 35.2L224.5125 20.8875L226.2625 20.8875L226.2625 25.996876Q227.3875 24.590626 229.10625 24.590626Q230.05937 24.590626 230.91875 24.98125Q231.77812 25.371876 232.325 26.075Q232.87187 26.7625 233.18437 27.746876Q233.49687 28.73125 233.49687 29.85625Q233.49687 32.528126 232.18437 33.98125Q230.87187 35.434376 229.02812 35.434376Q227.18437 35.434376 226.1375 33.903126L226.1375 35.2ZM226.12187 29.934376Q226.12187 31.79375 226.62187 32.6375Q227.46562 33.98125 228.87187 33.98125Q230.02812 33.98125 230.85625 32.98125Q231.7 31.98125 231.7 29.996876Q231.7 27.965626 230.8875 27.0125Q230.09062 26.04375 228.95 26.04375Q227.79375 26.04375 226.95 27.04375Q226.12187 28.04375 226.12187 29.934376ZM242.30937 35.2L242.30937 33.66875Q241.10625 35.434376 239.02812 35.434376Q238.10625 35.434376 237.30937 35.090626Q236.5125 34.73125 236.12187 34.2Q235.74687 33.66875 235.59062 32.8875Q235.48125 32.371876 235.48125 31.246876L235.48125 24.825L237.23125 24.825L237.23125 30.575Q237.23125 31.95 237.34062 32.434376Q237.5125 33.121876 238.04375 33.528126Q238.59062 33.91875 239.37187 33.91875Q240.16875 33.91875 240.85625 33.5125Q241.55937 33.10625 241.84062 32.41875Q242.1375 31.715626 242.1375 30.3875L242.1375 24.825L243.8875 24.825L243.8875 35.2L242.30937 35.2ZM249.35625 33.621876L249.60625 35.184376Q248.87187 35.340626 248.27812 35.340626Q247.325 35.340626 246.79375 35.04375Q246.27812 34.73125 246.05937 34.246876Q245.84062 33.746876 245.84062 32.16875L245.84062 26.2L244.55937 26.2L244.55937 24.825L245.84062 24.825L245.84062 22.2625L247.59062 21.2L247.59062 24.825L249.35625 24.825L249.35625 26.2L247.59062 26.2L247.59062 32.2625Q247.59062 33.0125 247.68437 33.23125Q247.77812 33.434376 247.98125 33.575Q248.2 33.7 248.59062 33.7Q248.87187 33.7 249.35625 33.621876ZM251.52812 22.903126L251.52812 20.8875L253.29375 20.8875L253.29375 22.903126L251.52812 22.903126ZM251.52812 35.2L251.52812 24.825L253.29375 24.825L253.29375 35.2L251.52812 35.2ZM254.87187 30.0125Q254.87187 27.1375 256.46564 25.746876Q257.8094 24.590626 259.73126 24.590626Q261.8719 24.590626 263.21564 25.996876Q264.575 27.403126 264.575 29.871876Q264.575 31.871876 263.98126 33.028126Q263.3875 34.16875 262.23126 34.809376Q261.09064 35.434376 259.73126 35.434376Q257.54376 35.434376 256.2 34.04375Q254.87187 32.6375 254.87187 30.0125ZM256.66876 30.0125Q256.66876 32.0125 257.52814 32.996876Q258.40314 33.98125 259.73126 33.98125Q261.04376 33.98125 261.90314 32.996876Q262.77814 31.996876 262.77814 29.95Q262.77814 28.028126 261.90314 27.04375Q261.02814 26.04375 259.73126 26.04375Q258.40314 26.04375 257.52814 27.04375Q256.66876 28.028126 256.66876 30.0125ZM266.5125 35.2L266.5125 24.825L268.10626 24.825L268.10626 26.309376Q269.2469 24.590626 271.40314 24.590626Q272.34064 24.590626 273.1219 24.934376Q273.91876 25.2625 274.3094 25.809376Q274.7 26.35625 274.85626 27.10625Q274.95 27.60625 274.95 28.825L274.95 35.2L273.1844 35.2L273.1844 28.8875Q273.1844 27.809376 272.98126 27.278126Q272.77814 26.746876 272.2469 26.434376Q271.73126 26.121876 271.02814 26.121876Q269.90314 26.121876 269.09064 26.840626Q268.27814 27.54375 268.27814 29.528126L268.27814 35.2L266.5125 35.2Z" fill-rule="nonzero"/></svg>