<?xml version="1.0" encoding="iso-8859-1"?>
<!-- Uploaded to: SVG Repo, www.svgrepo.com, Generator: SVG Repo Mixer Tools -->
<!DOCTYPE svg PUBLIC "-//W3C//DTD SVG 1.1//EN" "http://www.w3.org/Graphics/SVG/1.1/DTD/svg11.dtd">
<svg fill="#000000" version="1.1" id="Capa_1" xmlns="http://www.w3.org/2000/svg" xmlns:xlink="http://www.w3.org/1999/xlink" 
	 viewBox="0 0 248 248" xml:space="preserve">
<g id="Silencio_moviles">
	<path d="M125.18,0h-2.36C55.097,0,0,55.097,0,122.82v2.36C0,192.903,55.097,248,122.819,248h2.36
		C192.903,248,248,192.903,248,125.18v-2.36C248,55.097,192.903,0,125.18,0z M236,125.18C236,186.287,186.286,236,125.18,236h-2.36
		C61.713,236,12,186.287,12,125.18v-2.36C12,61.713,61.713,12,122.819,12h2.36C186.286,12,236,61.713,236,122.82V125.18z"/>
	<path d="M124.97,21h-1.94C66.771,21,21,66.771,21,123.03v1.94C21,181.229,66.771,227,123.029,227h1.94
		C181.229,227,227,181.229,227,124.97v-1.94C227,66.771,181.229,21,124.97,21z M98.067,173.267l10.686-10.686h5.796v-5.796
		l7.782-7.782h5.27h1.297v-6.566l22.83-22.83v60.442h-53.66V173.267z M62.661,191.703c-2.225-2.015-4.35-4.139-6.365-6.365
		L185.338,56.297c2.225,2.015,4.35,4.139,6.365,6.365L62.661,191.703z M142.662,82.003h-37.213v37.213l-7.382,7.382V75.453h51.145
		L142.662,82.003z M134.662,90.003l-21.213,21.213V90.003H134.662z M33,123.03C33,73.387,73.387,33,123.029,33h1.94
		c18.872,0,36.404,5.842,50.89,15.805l-18.648,18.648H90.067v67.145L48.805,175.86C38.842,161.374,33,143.842,33,124.97V123.03z
		 M215,124.97c0,49.643-40.388,90.03-90.03,90.03h-1.94c-18.872,0-36.404-5.842-50.89-15.805l17.928-17.928v6.782h69.66v-76.442
		l39.467-39.467C209.158,86.626,215,104.157,215,123.03V124.97z"/>
	<rect x="132.949" y="141.003" width="9" height="8"/>
	<rect x="132.949" y="154.581" width="9" height="8"/>
	<polygon points="119.897,154.581 118.601,154.581 118.601,162.581 119.897,162.581 127.601,162.581 128.897,162.581 
		128.897,154.581 127.601,154.581 	"/>
</g>
</svg>