<svg id="svg" xmlns="http://www.w3.org/2000/svg" xmlns:xlink="http://www.w3.org/1999/xlink" width="400" height="400" viewBox="0, 0, 400,400"><g id="svgg"><path id="path0" d="M192.000 54.982 C 192.000 77.542,195.600 96.000,200.000 96.000 C 204.400 96.000,208.000 83.400,208.000 68.000 C 208.000 9.875,306.003 54.070,344.779 129.681 C 434.693 305.011,186.349 447.875,65.982 290.065 C 35.821 250.522,33.640 154.524,62.000 114.765 C 83.362 84.817,85.042 69.851,66.642 73.413 C 15.194 83.375,-1.285 237.007,42.068 302.517 C 95.089 382.635,223.804 410.021,302.516 357.932 C 441.471 265.975,393.098 33.287,231.803 17.789 L 192.000 13.964 192.000 54.982 M112.000 116.747 C 112.000 140.391,181.923 224.000,201.697 224.000 C 246.659 224.000,232.148 184.750,172.747 145.697 C 121.968 112.312,112.000 107.561,112.000 116.747 " stroke="none" fill="#000000" fill-rule="evenodd"></path></g></svg>